<svg xmlns="http://www.w3.org/2000/svg" width="417.4751892089844" height="309.3730773925781" viewBox="-85.45538330078125 -0.5516319274902344 417.4751892089844 309.3730773925781"><title>Neo4j Graph Visualization</title><desc>Created using Neo4j (http://www.neo4j.com/)</desc><g class="layer relationships"><g class="relationship" transform="translate(294.3654087921987 124.52579377150519) rotate(506.2198056859096)"><path class="outline" fill="#D9C8AE" stroke="none" d="M 32.5 2.5 L 99.30776553689424 2.5 L 99.30776553689424 -2.5 L 32.5 -2.5 Z M 155.5077662998337 2.5 L 222.31553183672793 2.5 L 222.31553183672793 5.5 L 233.31553183672793 0 L 222.31553183672793 -5.5 L 222.31553183672793 -2.5 L 155.5077662998337 -2.5 Z"/><text text-anchor="middle" pointer-events="none" font-size="8px" fill="#000000" x="127.40776591836396" y="3" transform="rotate(180 127.40776591836396 0)" font-family="sans-serif">APPEARS_IN</text></g><g class="relationship" transform="translate(104.39458615466972 125.4266351391637) rotate(359.72830553245194)"><path class="outline" fill="#F16667" stroke="none" d="M 30.745541741638416,-10.826433531554594 L 32.03963696715102,-5.996804400109253 A 234.70656540062174 234.70656540062174 0 0 1 62.380295123457316,-12.016386423031179 L 61.73255288991402,-16.974251891041007 A 239.70656540062174 239.70656540062174 0 0 0 30.745541741638416,-10.826433531554594 Z M 117.08184847925617,-17.759802385663647 L 116.57506881856523,-12.785551248506437 A 234.70656540062174 234.70656540062174 0 0 1 147.07433904942155,-7.6294460833920095 L 146.38043209134403,-4.710800312913583 L 158.3542960062404,-7.5173253791731245 L 148.92475760429497,-15.412501471334476 L 148.23085064621745,-12.49385570085605 A 239.70656540062174 239.70656540062174 0 0 0 117.08184847925617,-17.759802385663647"/><text text-anchor="middle" pointer-events="none" font-size="8px" fill="#000000" x="89.41992686533608" y="-13.470350037476777" font-family="sans-serif">SPOUSE_OF</text></g><g class="relationship" transform="translate(104.39458615466972 125.4266351391637) rotate(268.49203215536)"><path class="outline" fill="#8DCC93" stroke="none" d="M 32.5 2.5 L 39.254633908729666 2.5 L 39.254633908729666 -2.5 L 32.5 -2.5 Z M 39.254633908729666 2.5 L 46.00926781745933 2.5 L 46.00926781745933 5.5 L 57.00926781745933 0 L 46.00926781745933 -5.5 L 46.00926781745933 -2.5 L 39.254633908729666 -2.5 Z"/><text text-anchor="middle" pointer-events="none" font-size="8px" fill="#000000" x="39.254633908729666" y="3" transform="rotate(180 39.254633908729666 0)" font-family="sans-serif"/></g><g class="relationship" transform="translate(-48.95538484667895 134.76135542408363) rotate(326.79867408980795)"><path class="outline" fill="#8DCC93" stroke="none" d="M 32.5 2.5 L 55.95989583876147 2.5 L 55.95989583876147 -2.5 L 32.5 -2.5 Z M 113.4932286634685 2.5 L 136.95312450222997 2.5 L 136.95312450222997 5.5 L 147.95312450222997 0 L 136.95312450222997 -5.5 L 136.95312450222997 -2.5 L 113.4932286634685 -2.5 Z"/><text text-anchor="middle" pointer-events="none" font-size="8px" fill="#000000" x="84.72656225111498" y="3" font-family="sans-serif">IS_CHILD_OF</text></g><g class="relationship" transform="translate(-48.95538484667895 134.76135542408363) rotate(408.3419280404352)"><path class="outline" fill="#D9C8AE" stroke="none" d="M 32.5 2.5 L 58.45964709721284 2.5 L 58.45964709721284 -2.5 L 32.5 -2.5 Z M 114.65964786015229 2.5 L 140.61929495736513 2.5 L 140.61929495736513 5.5 L 151.61929495736513 0 L 140.61929495736513 -5.5 L 140.61929495736513 -2.5 L 114.65964786015229 -2.5 Z"/><text text-anchor="middle" pointer-events="none" font-size="8px" fill="#000000" x="86.55964747868256" y="3" font-family="sans-serif">APPEARS_IN</text></g><g class="relationship" transform="translate(294.3654087921987 124.52579377150519) rotate(449.53231241470655)"><path class="outline" fill="#D9C8AE" stroke="none" d="M 32.5 2.5 L 37.11274346122913 2.5 L 37.11274346122913 -2.5 L 32.5 -2.5 Z M 93.31274422416858 2.5 L 97.92548768539771 2.5 L 97.92548768539771 5.5 L 108.92548768539771 0 L 97.92548768539771 -5.5 L 97.92548768539771 -2.5 L 93.31274422416858 -2.5 Z"/><text text-anchor="middle" pointer-events="none" font-size="8px" fill="#000000" x="65.21274384269886" y="3" font-family="sans-serif">APPEARS_IN</text></g><g class="relationship" transform="translate(-48.95538484667895 134.76135542408363) rotate(380.8481495652593)"><path class="outline" fill="#D9C8AE" stroke="none" d="M 32.5 2.5 L 150.7045838574957 2.5 L 150.7045838574957 -2.5 L 32.5 -2.5 Z M 206.90458462043514 2.5 L 325.10916847793084 2.5 L 325.10916847793084 5.5 L 336.10916847793084 0 L 325.10916847793084 -5.5 L 325.10916847793084 -2.5 L 206.90458462043514 -2.5 Z"/><text text-anchor="middle" pointer-events="none" font-size="8px" fill="#000000" x="178.80458423896542" y="3" font-family="sans-serif">APPEARS_IN</text></g><g class="relationship" transform="translate(294.3654087921987 124.52579377150519) rotate(539.7283055324519)"><path class="outline" fill="#F16667" stroke="none" d="M 30.745541741638416,-10.826433531554594 L 32.03963696715102,-5.996804400109253 A 234.70656540062174 234.70656540062174 0 0 1 62.380295123457316,-12.016386423031179 L 61.73255288991402,-16.974251891041007 A 239.70656540062174 239.70656540062174 0 0 0 30.745541741638416,-10.826433531554594 Z M 117.08184847925617,-17.759802385663647 L 116.57506881856523,-12.785551248506437 A 234.70656540062174 234.70656540062174 0 0 1 147.07433904942155,-7.6294460833920095 L 146.38043209134403,-4.710800312913583 L 158.3542960062404,-7.5173253791731245 L 148.92475760429497,-15.412501471334476 L 148.23085064621745,-12.49385570085605 A 239.70656540062174 239.70656540062174 0 0 0 117.08184847925617,-17.759802385663647"/><text text-anchor="middle" pointer-events="none" font-size="8px" fill="#000000" x="89.41992686533608" y="-13.470350037476777" transform="rotate(180 89.41992686533608 -16.470350037476777)" font-family="sans-serif">SPOUSE_OF</text></g></g><g class="layer nodes"><g class="node" transform="translate(73.42572776765536,272.3214442975459)"><circle class="outline" cx="0" cy="0" r="32.5" fill="#F16667" stroke="#eb2728" stroke-width="2px"/><text text-anchor="middle" pointer-events="none" font-family="sans-serif" dy="2.03125" font-size="32.5" fill="#FFFFFF"/><text text-anchor="middle" pointer-events="none" y="5" font-size="10px" fill="#FFFFFF" font-family="sans-serif"> 1440-07-19</text></g><g class="node" transform="translate(294.3654087921987,124.52579377150519)"><circle class="outline" cx="0" cy="0" r="32.5" fill="#4C8EDA" stroke="#2870c2" stroke-width="2px"/><text text-anchor="middle" pointer-events="none" font-family="sans-serif" dy="2.03125" font-size="32.5" fill="#FFFFFF"/><text text-anchor="middle" pointer-events="none" font-family="sans-serif" dy="2.03125" font-size="32.5" fill="#FFFFFF"/><text text-anchor="middle" pointer-events="none" font-family="sans-serif" dy="2.03125" font-size="32.5" fill="#FFFFFF"/><text text-anchor="middle" pointer-events="none" y="-5" font-size="32.5" fill="#FFFFFF" dy="2.03125" font-family="sans-serif"/><text text-anchor="middle" pointer-events="none" y="5" font-size="32.5" fill="#FFFFFF" dy="2.03125" font-family="sans-serif"/><text text-anchor="middle" pointer-events="none" y="-15" font-size="10px" fill="#FFFFFF" font-family="sans-serif"> Ludwig</text><text text-anchor="middle" pointer-events="none" y="-5" font-size="10px" fill="#FFFFFF" font-family="sans-serif"> VIII. (der</text><text text-anchor="middle" pointer-events="none" y="5" font-size="10px" fill="#FFFFFF" font-family="sans-serif"> Bucklige),</text><text text-anchor="middle" pointer-events="none" y="15" font-size="10px" fill="#FFFFFF" font-family="sans-serif"> Graf von</text><text text-anchor="middle" pointer-events="none" y="25" font-size="10px" fill="#FFFFFF" font-family="sans-serif"> Graisb…</text></g><g class="node" transform="translate(104.39458615466972,125.4266351391637)"><circle class="outline" cx="0" cy="0" r="32.5" fill="#4C8EDA" stroke="#2870c2" stroke-width="2px"/><text text-anchor="middle" pointer-events="none" font-family="sans-serif" dy="2.03125" font-size="32.5" fill="#FFFFFF"/><text text-anchor="middle" pointer-events="none" y="5" font-size="32.5" fill="#FFFFFF" dy="2.03125" font-family="sans-serif"/><text text-anchor="middle" pointer-events="none" font-family="sans-serif" dy="2.03125" font-size="32.5" fill="#FFFFFF"/><text text-anchor="middle" pointer-events="none" y="-5" font-size="10px" fill="#FFFFFF" font-family="sans-serif"> Margarete</text><text text-anchor="middle" pointer-events="none" y="5" font-size="10px" fill="#FFFFFF" font-family="sans-serif"> von</text><text text-anchor="middle" pointer-events="none" y="15" font-size="10px" fill="#FFFFFF" font-family="sans-serif"> Brandenb…</text></g><g class="node" transform="translate(102.03906334875919,35.948366618094866)"><circle class="outline" cx="0" cy="0" r="32.5" fill="#4C8EDA" stroke="#2870c2" stroke-width="2px"/><text text-anchor="middle" pointer-events="none" font-family="sans-serif" dy="2.03125" font-size="32.5" fill="#FFFFFF"/><text text-anchor="middle" pointer-events="none" y="5" font-size="10px" fill="#FFFFFF" font-family="sans-serif"> Friedrich I.</text></g><g class="node" transform="translate(-48.95538484667895,134.76135542408363)"><circle class="outline" cx="0" cy="0" r="32.5" fill="#4C8EDA" stroke="#2870c2" stroke-width="2px"/><text text-anchor="middle" pointer-events="none" font-family="sans-serif" dy="2.03125" font-size="32.5" fill="#FFFFFF"/><text text-anchor="middle" pointer-events="none" font-family="sans-serif" dy="2.03125" font-size="32.5" fill="#FFFFFF"/><text text-anchor="middle" pointer-events="none" y="0" font-size="32.5" fill="#FFFFFF" dy="2.03125" font-family="sans-serif"/><text text-anchor="middle" pointer-events="none" y="10" font-size="32.5" fill="#FFFFFF" dy="2.03125" font-family="sans-serif"/><text text-anchor="middle" pointer-events="none" y="-10" font-size="10px" fill="#FFFFFF" font-family="sans-serif"> Friedrich</text><text text-anchor="middle" pointer-events="none" y="0" font-size="10px" fill="#FFFFFF" font-family="sans-serif"> II. (der</text><text text-anchor="middle" pointer-events="none" y="10" font-size="10px" fill="#FFFFFF" font-family="sans-serif"> Eiserne),</text><text text-anchor="middle" pointer-events="none" y="20" font-size="10px" fill="#FFFFFF" font-family="sans-serif"> Burggraf</text></g><g class="node" transform="translate(295.51980813692205,265.94656992976803)"><circle class="outline" cx="0" cy="0" r="32.5" fill="#F16667" stroke="#eb2728" stroke-width="2px"/><text text-anchor="middle" pointer-events="none" font-family="sans-serif" dy="2.03125" font-size="32.5" fill="#FFFFFF"/><text text-anchor="middle" pointer-events="none" y="5" font-size="10px" fill="#FFFFFF" font-family="sans-serif"> 1440-08-06</text></g></g></svg>