<svg height="577.3" width="1035.77" xmlns="http://www.w3.org/2000/svg">
<style>
text{font-family:sans-serif}
</style>
<g class="layer relationships"><g class="relationship"><path fill="#4356C0" stroke="none" d="M 0 1.5 L 84.97426117500044 1.5 L 84.97426117500044 -1.5 L 0 -1.5 Z M 130.9409283502934 1.5 L 215.91518952529384 1.5 L 215.91518952529384 4.5 L 224.91518952529384 0 L 215.91518952529384 -4.5 L 215.91518952529384 -1.5 L 130.9409283502934 -1.5 Z" transform="translate(927.7540195098933 340.55589306468636) rotate(167.91807225690366)"/><text text-anchor="middle" font-size="9px" fill="#000000" x="822.1877603845528" y="366.65251230778006" transform="rotate(347.91807225690366 822.1877603845528 363.15251230778006)">IOO_BSD</text><rect class="overlay" fill="yellow" x="0" y="-10" height="20" opacity="0" width="224.91518952529384" transform="translate(927.7540195098933 340.55589306468636) rotate(167.91807225690366)"/></g><g class="relationship"><path fill="#4356C0" stroke="none" d="M 0 1.5 L 98.74477777840727 1.5 L 98.74477777840727 -1.5 L 0 -1.5 Z M 182.44477472664946 1.5 L 281.1895525050567 1.5 L 281.1895525050567 4.5 L 290.1895525050567 0 L 281.1895525050567 -4.5 L 281.1895525050567 -1.5 L 182.44477472664946 -1.5 Z" transform="translate(973.628619303679 513.4107335667275) rotate(-156.92153881903633)"/><text text-anchor="middle" font-size="9px" fill="#000000" x="844.285794697581" y="461.79880352962334" transform="rotate(23.07846118096367 844.285794697581 458.29880352962334)">IOO_PROTECTOR</text><rect class="overlay" fill="yellow" x="0" y="-10" height="20" opacity="0" width="290.1895525050567" transform="translate(973.628619303679 513.4107335667275) rotate(-156.92153881903633)"/></g><g class="relationship"><path fill="#4356C0" stroke="none" d="M 0 1.5 L 44.718189103624084 1.5 L 44.718189103624084 -1.5 L 0 -1.5 Z M 90.68485627891705 1.5 L 135.40304538254114 1.5 L 135.40304538254114 4.5 L 144.40304538254114 0 L 135.40304538254114 -4.5 L 135.40304538254114 -1.5 L 90.68485627891705 -1.5 Z" transform="translate(578.9679048986549 269.00726525775093) rotate(48.33263278220833)"/><text text-anchor="middle" font-size="9px" fill="#000000" x="623.9762156496396" y="323.08144975991974" transform="rotate(48.33263278220833 623.9762156496396 319.58144975991974)">IOO_BSD</text><rect class="overlay" fill="yellow" x="0" y="-10" height="20" opacity="0" width="144.40304538254114" transform="translate(578.9679048986549 269.00726525775093) rotate(48.33263278220833)"/></g><g class="relationship"><path fill="#4356C0" stroke="none" d="M 0 1.5 L 46.56360039351877 1.5 L 46.56360039351877 -1.5 L 0 -1.5 Z M 110.93026527999338 1.5 L 157.49386567351215 1.5 L 157.49386567351215 4.5 L 166.49386567351215 0 L 157.49386567351215 -4.5 L 157.49386567351215 -1.5 L 110.93026527999338 -1.5 Z" transform="translate(831.3988072016764 511.3697512051403) rotate(-140.13034718103646)"/><text text-anchor="middle" font-size="9px" fill="#000000" x="770.9601587945443" y="464.38956489490914" transform="rotate(39.869652818963544 770.9601587945443 460.88956489490914)">REGISTERED</text><rect class="overlay" fill="yellow" x="0" y="-10" height="20" opacity="0" width="166.49386567351215" transform="translate(831.3988072016764 511.3697512051403) rotate(-140.13034718103646)"/></g><g class="relationship"><path fill="#4356C0" stroke="none" d="M 0 1.5 L 30.950013820764582 1.5 L 30.950013820764582 -1.5 L 0 -1.5 Z M 95.31667870723919 1.5 L 126.26669252800377 1.5 L 126.26669252800377 4.5 L 135.26669252800377 0 L 126.26669252800377 -4.5 L 126.26669252800377 -1.5 L 95.31667870723919 -1.5 Z" transform="translate(826.7509720247245 524.4782853313773) rotate(179.17585773464523)"/><text text-anchor="middle" font-size="9px" fill="#000000" x="763.6241567720147" y="528.8863638195035" transform="rotate(359.1758577346452 763.6241567720147 525.3863638195035)">REGISTERED</text><rect class="overlay" fill="yellow" x="0" y="-10" height="20" opacity="0" width="135.26669252800377" transform="translate(826.7509720247245 524.4782853313773) rotate(179.17585773464523)"/></g><g class="relationship"><path fill="#4356C0" stroke="none" d="M 0 1.5 L 58.035383738134726 1.5 L 58.035383738134726 -1.5 L 0 -1.5 Z M 104.0020509134277 1.5 L 162.03743465156242 1.5 L 162.03743465156242 4.5 L 171.03743465156242 0 L 162.03743465156242 -4.5 L 162.03743465156242 -1.5 L 104.0020509134277 -1.5 Z" transform="translate(927.930223496089 331.4315444831915) rotate(-165.70542333631676)"/><text text-anchor="middle" font-size="9px" fill="#000000" x="849.4199180265798" y="314.92743260090106" transform="rotate(14.294576663683245 849.4199180265798 311.42743260090106)">IOO_BSD</text><rect class="overlay" fill="yellow" x="0" y="-10" height="20" opacity="0" width="171.03743465156242" transform="translate(927.930223496089 331.4315444831915) rotate(-165.70542333631676)"/></g><g class="relationship"><path fill="#4356C0" stroke="none" d="M 0 1.5 L 8.606696312410293 1.5 L 8.606696312410293 -1.5 L 0 -1.5 Z M 107.44003218887514 1.5 L 116.04672850128543 1.5 L 116.04672850128543 4.5 L 125.04672850128543 0 L 116.04672850128543 -4.5 L 116.04672850128543 -1.5 L 107.44003218887514 -1.5 Z" transform="translate(942.7225803470012 191.39555532785695) rotate(88.18719612940473)"/><text text-anchor="middle" font-size="9px" fill="#000000" x="944.5580982823351" y="252.88987981630868" transform="rotate(88.18719612940473 944.5580982823351 249.38987981630868)">HAS_SIMILIAR_NAME</text><rect class="overlay" fill="yellow" x="0" y="-10" height="20" opacity="0" width="125.04672850128543" transform="translate(942.7225803470012 191.39555532785695) rotate(88.18719612940473)"/></g><g class="relationship"><path fill="#4356C0" stroke="none" d="M 0 1.5 L 20.297217422657894 1.5 L 20.297217422657894 -1.5 L 0 -1.5 Z M 119.13055329912274 1.5 L 139.42777072178063 1.5 L 139.42777072178063 4.5 L 148.42777072178063 0 L 139.42777072178063 -4.5 L 139.42777072178063 -1.5 L 119.13055329912274 -1.5 Z" transform="translate(808.3195772423385 69.06585992268379) rotate(37.41745024865368)"/><text text-anchor="middle" font-size="9px" fill="#000000" x="863.6884084363057" y="114.92525491748171" transform="rotate(37.41745024865368 863.6884084363057 111.42525491748171)">HAS_SIMILIAR_NAME</text><rect class="overlay" fill="yellow" x="0" y="-10" height="20" opacity="0" width="148.42777072178063" transform="translate(808.3195772423385 69.06585992268379) rotate(37.41745024865368)"/></g><g class="relationship"><path fill="#4356C0" stroke="none" d="M 0 1.5 L 47.38943485881087 1.5 L 47.38943485881087 -1.5 L 0 -1.5 Z M 134.6227646317601 1.5 L 182.01219949057096 1.5 L 182.01219949057096 4.5 L 191.01219949057096 0 L 182.01219949057096 -4.5 L 182.01219949057096 -1.5 L 134.6227646317601 -1.5 Z" transform="translate(772.4350822056338 56.85123525387489) rotate(-179.82161093162395)"/><text text-anchor="middle" font-size="9px" fill="#000000" x="681.429423554567" y="60.06789035030149" transform="rotate(0.17838906837604895 681.429423554567 56.56789035030149)">IOO_BENEFICIARY</text><rect class="overlay" fill="yellow" x="0" y="-10" height="20" opacity="0" width="191.01219949057096" transform="translate(772.4350822056338 56.85123525387489) rotate(-179.82161093162395)"/></g><g class="relationship"><path fill="#4356C0" stroke="none" d="M 0 1.5 L 126.44273206273931 1.5 L 126.44273206273931 -1.5 L 0 -1.5 Z M 222.27606793920415 1.5 L 348.71880000194346 1.5 L 348.71880000194346 4.5 L 357.71880000194346 0 L 348.71880000194346 -4.5 L 348.71880000194346 -1.5 L 222.27606793920415 -1.5 Z" transform="translate(922.9474288647176 165.61195855742073) rotate(-163.16118163376098)"/><text text-anchor="middle" font-size="9px" fill="#000000" x="756.0639572813279" y="118.60347134017371" transform="rotate(16.838818366239025 756.0639572813279 115.10347134017371)">IOO_SHAREHOLDER</text><rect class="overlay" fill="yellow" x="0" y="-10" height="20" opacity="0" width="357.71880000194346" transform="translate(922.9474288647176 165.61195855742073) rotate(-163.16118163376098)"/></g><g class="relationship"><path fill="#4356C0" stroke="none" d="M 0 1.5 L 80.42239666684776 1.5 L 80.42239666684776 -1.5 L 0 -1.5 Z M 167.65572643979698 1.5 L 248.07812310664474 1.5 L 248.07812310664474 4.5 L 257.07812310664474 0 L 248.07812310664474 -4.5 L 248.07812310664474 -1.5 L 167.65572643979698 -1.5 Z" transform="translate(353.367424987964 239.18274412750114) rotate(-41.33206516744702)"/><text text-anchor="middle" font-size="9px" fill="#000000" x="446.50769278970546" y="160.76461850899847" transform="rotate(-41.33206516744702 446.50769278970546 157.26461850899847)">IOO_BENEFICIARY</text><rect class="overlay" fill="yellow" x="0" y="-10" height="20" opacity="0" width="257.07812310664474" transform="translate(353.367424987964 239.18274412750114) rotate(-41.33206516744702)"/></g><g class="relationship"><path fill="#4356C0" stroke="none" d="M 0 1.5 L 39.74755673845799 1.5 L 39.74755673845799 -1.5 L 0 -1.5 Z M 138.58089261492285 1.5 L 178.32844935338082 1.5 L 178.32844935338082 4.5 L 187.32844935338082 0 L 178.32844935338082 -4.5 L 178.32844935338082 -1.5 L 138.58089261492285 -1.5 Z" transform="translate(358.34898858203746 252.53861337631014) rotate(0.4223572765018202)"/><text text-anchor="middle" font-size="9px" fill="#000000" x="447.5107907052553" y="256.6958837434163" transform="rotate(0.4223572765018202 447.5107907052553 253.1958837434163)">HAS_SIMILIAR_NAME</text><rect class="overlay" fill="yellow" x="0" y="-10" height="20" opacity="0" width="187.32844935338082" transform="translate(358.34898858203746 252.53861337631014) rotate(0.4223572765018202)"/></g><g class="relationship"><path fill="#4356C0" stroke="none" d="M 0 1.5 L 23.619165638557234 1.5 L 23.619165638557234 -1.5 L 0 -1.5 Z M 122.45250151502208 1.5 L 146.0716671535793 1.5 L 146.0716671535793 4.5 L 155.0716671535793 0 L 146.0716671535793 -4.5 L 146.0716671535793 -1.5 L 122.45250151502208 -1.5 Z" transform="translate(338.3104479433131 232.39122239869764) rotate(-90.11196756978016)"/><text text-anchor="middle" font-size="9px" fill="#000000" x="338.1677212074695" y="162.85552828044206" transform="rotate(89.88803243021984 338.1677212074695 159.35552828044206)">HAS_SIMILIAR_NAME</text><rect class="overlay" fill="yellow" x="0" y="-10" height="20" opacity="0" width="155.0716671535793" transform="translate(338.3104479433131 232.39122239869764) rotate(-90.11196756978016)"/></g><g class="relationship"><path fill="#4356C0" stroke="none" d="M 0 1.5 L 39.312541037709806 1.5 L 39.312541037709806 -1.5 L 0 -1.5 Z M 135.14587691417466 1.5 L 174.45841795188446 1.5 L 174.45841795188446 4.5 L 183.45841795188446 0 L 174.45841795188446 -4.5 L 174.45841795188446 -1.5 L 135.14587691417466 -1.5 Z" transform="translate(357.9680688790178 57.21914284930641) rotate(-0.28861921896360876)"/><text text-anchor="middle" font-size="9px" fill="#000000" x="445.19617113880486" y="60.279740158460264" transform="rotate(-0.28861921896360876 445.19617113880486 56.779740158460264)">IOO_SHAREHOLDER</text><rect class="overlay" fill="yellow" x="0" y="-10" height="20" opacity="0" width="183.45841795188446" transform="translate(357.9680688790178 57.21914284930641) rotate(-0.28861921896360876)"/></g><g class="relationship"><path fill="#4356C0" stroke="none" d="M 0 1.5 L 51.47579791121299 1.5 L 51.47579791121299 -1.5 L 0 -1.5 Z M 97.44246508650596 1.5 L 148.91826299771895 1.5 L 148.91826299771895 4.5 L 157.91826299771895 0 L 148.91826299771895 -4.5 L 148.91826299771895 -1.5 L 97.44246508650596 -1.5 Z" transform="translate(565.2425469553061 234.07153349265965) rotate(-91.22982789276952)"/><text text-anchor="middle" font-size="9px" fill="#000000" x="563.6444382268133" y="163.1295539914645" transform="rotate(88.77017210723048 563.6444382268133 159.6295539914645)">IOO_BSD</text><rect class="overlay" fill="yellow" x="0" y="-10" height="20" opacity="0" width="157.91826299771895" transform="translate(565.2425469553061 234.07153349265965) rotate(-91.22982789276952)"/></g><g class="relationship"><path fill="#4356C0" stroke="none" d="M 0 1.5 L 190.95278402769495 1.5 L 190.95278402769495 -1.5 L 0 -1.5 Z M 236.91945120298791 1.5 L 427.87223523068286 1.5 L 427.87223523068286 4.5 L 436.87223523068286 0 L 427.87223523068286 -4.5 L 427.87223523068286 -1.5 L 236.91945120298791 -1.5 Z" transform="translate(931.126918085292 324.61914516416687) rotate(-144.0182696117052)"/><text text-anchor="middle" font-size="9px" fill="#000000" x="758.0088752450082" y="202.42584516979613" transform="rotate(35.98173038829481 758.0088752450082 198.92584516979613)">IOO_BSD</text><rect class="overlay" fill="yellow" x="0" y="-10" height="20" opacity="0" width="436.87223523068286" transform="translate(931.126918085292 324.61914516416687) rotate(-144.0182696117052)"/></g><g class="relationship"><path fill="#4356C0" stroke="none" d="M 0 1.5 L 42.36215915944564 1.5 L 42.36215915944564 -1.5 L 0 -1.5 Z M 88.32882633473861 1.5 L 130.69098549418425 1.5 L 130.69098549418425 4.5 L 139.69098549418425 0 L 130.69098549418425 -4.5 L 130.69098549418425 -1.5 L 88.32882633473861 -1.5 Z" transform="translate(585.3873930983987 257.4278165261042) rotate(9.674141935094587)"/><text text-anchor="middle" font-size="9px" fill="#000000" x="649.8036343436182" y="271.90876758682487" transform="rotate(9.674141935094587 649.8036343436182 268.40876758682487)">IOO_BSD</text><rect class="overlay" fill="yellow" x="0" y="-10" height="20" opacity="0" width="139.69098549418425" transform="translate(585.3873930983987 257.4278165261042) rotate(9.674141935094587)"/></g><g class="relationship"><path fill="#4356C0" stroke="none" d="M 0 1.5 L 113.74491446881845 1.5 L 113.74491446881845 -1.5 L 0 -1.5 Z M 209.5782503452833 1.5 L 323.32316481410174 1.5 L 323.32316481410174 4.5 L 332.32316481410174 0 L 323.32316481410174 -4.5 L 323.32316481410174 -1.5 L 209.5782503452833 -1.5 Z" transform="translate(191.73202340252283 196.1233703423297) rotate(50.909981110434046)"/><text text-anchor="middle" font-size="9px" fill="#000000" x="293.6662158740403" y="325.0980197004026" transform="rotate(50.909981110434046 293.6662158740403 321.5980197004026)">IOO_SHAREHOLDER</text><rect class="overlay" fill="yellow" x="0" y="-10" height="20" opacity="0" width="332.32316481410174" transform="translate(191.73202340252283 196.1233703423297) rotate(50.909981110434046)"/></g><g class="relationship"><path fill="#4356C0" stroke="none" d="M 0 1.5 L 79.86175806916933 1.5 L 79.86175806916933 -1.5 L 0 -1.5 Z M 175.69509394563417 1.5 L 255.5568520148035 1.5 L 255.5568520148035 4.5 L 264.5568520148035 0 L 255.5568520148035 -4.5 L 255.5568520148035 -1.5 L 175.69509394563417 -1.5 Z" transform="translate(181.49592641395856 305.3636139774817) rotate(35.24678695159489)"/><text text-anchor="middle" font-size="9px" fill="#000000" x="285.8492343685241" y="382.60446610076986" transform="rotate(35.24678695159489 285.8492343685241 379.10446610076986)">IOO_SHAREHOLDER</text><rect class="overlay" fill="yellow" x="0" y="-10" height="20" opacity="0" width="264.5568520148035" transform="translate(181.49592641395856 305.3636139774817) rotate(35.24678695159489)"/></g><g class="relationship"><path fill="#4356C0" stroke="none" d="M 0 1.5 L 58.9646713029349 1.5 L 58.9646713029349 -1.5 L 0 -1.5 Z M 154.79800717939975 1.5 L 213.76267848233465 1.5 L 213.76267848233465 4.5 L 222.76267848233465 0 L 213.76267848233465 -4.5 L 213.76267848233465 -1.5 L 154.79800717939975 -1.5 Z" transform="translate(181.33788962442625 399.90297995760767) rotate(16.679749050369704)"/><text text-anchor="middle" font-size="9px" fill="#000000" x="283.72208978206055" y="434.08027182092195" transform="rotate(16.679749050369704 283.72208978206055 430.58027182092195)">IOO_SHAREHOLDER</text><rect class="overlay" fill="yellow" x="0" y="-10" height="20" opacity="0" width="222.76267848233465" transform="translate(181.33788962442625 399.90297995760767) rotate(16.679749050369704)"/></g><g class="relationship"><path fill="#4356C0" stroke="none" d="M 0 1.5 L 51.809471501698184 1.5 L 51.809471501698184 -1.5 L 0 -1.5 Z M 147.642807378163 1.5 L 199.4522788798612 1.5 L 199.4522788798612 4.5 L 208.4522788798612 0 L 199.4522788798612 -4.5 L 199.4522788798612 -1.5 L 147.642807378163 -1.5 Z" transform="translate(185.67013029964397 479.96971826033865) rotate(-2.606336629020057)"/><text text-anchor="middle" font-size="9px" fill="#000000" x="285.29310771150904" y="478.9348247458779" transform="rotate(-2.606336629020057 285.29310771150904 475.4348247458779)">IOO_SHAREHOLDER</text><rect class="overlay" fill="yellow" x="0" y="-10" height="20" opacity="0" width="208.4522788798612" transform="translate(185.67013029964397 479.96971826033865) rotate(-2.606336629020057)"/></g><g class="relationship"><path fill="#4356C0" stroke="none" d="M 0 1.5 L 48.86244960159716 1.5 L 48.86244960159716 -1.5 L 0 -1.5 Z M 113.22911448807177 1.5 L 162.09156408966894 1.5 L 162.09156408966894 4.5 L 171.09156408966894 0 L 162.09156408966894 -4.5 L 162.09156408966894 -1.5 L 113.22911448807177 -1.5 Z" transform="translate(604.8902079151256 463.8009523816955) rotate(178.2666196922796)"/><text text-anchor="middle" font-size="9px" fill="#000000" x="523.8815118493856" y="469.75247211185643" transform="rotate(358.2666196922796 523.8815118493856 466.25247211185643)">REGISTERED</text><rect class="overlay" fill="yellow" x="0" y="-10" height="20" opacity="0" width="171.09156408966894" transform="translate(604.8902079151256 463.8009523816955) rotate(178.2666196922796)"/></g></g><g class="layer nodes"><g class="node" transform="translate(947.3110056316082,336.36969027038106)"><circle class="outline" cx="0" cy="0" r="20" fill="#65b144" stroke="#65b144" stroke-width="2px"/><text text-anchor="middle" font-weight="bold" stroke="#65b144" stroke-width="0" y="0" font-size="12px" fill="#000000">Leyla</text><text text-anchor="middle" font-weight="bold" stroke="#65b144" stroke-width="0" y="10" font-size="12px" fill="#000000">Aliyeva</text></g><g class="node" transform="translate(688.2638713827256,391.8191256026165)"><circle class="outline" cx="0" cy="0" r="20" fill="#f58220" stroke="#f58220" stroke-width="2px"/><text text-anchor="middle" font-weight="bold" stroke="#f58220" stroke-width="0" y="-5" font-size="12px" fill="#000000">UF</text><text text-anchor="middle" font-weight="bold" stroke="#f58220" stroke-width="0" y="5" font-size="12px" fill="#000000">Universe</text><text text-anchor="middle" font-weight="bold" stroke="#f58220" stroke-width="0" y="15" font-size="12px" fill="#000000">Foundation</text></g><g class="node" transform="translate(992.0279977235116,521.2505596976948)"><circle class="outline" cx="0" cy="0" r="20" fill="#65b144" stroke="#65b144" stroke-width="2px"/><text text-anchor="middle" font-weight="bold" stroke="#65b144" stroke-width="0" y="0" font-size="12px" fill="#000000">Mehriban</text><text text-anchor="middle" font-weight="bold" stroke="#65b144" stroke-width="0" y="10" font-size="12px" fill="#000000">Aliyeva</text></g><g class="node" transform="translate(565.6718049109988,254.06692640221445)"><circle class="outline" cx="0" cy="0" r="20" fill="#65b144" stroke="#65b144" stroke-width="2px"/><text text-anchor="middle" font-weight="bold" stroke="#65b144" stroke-width="0" y="0" font-size="12px" fill="#000000">Arzu</text><text text-anchor="middle" font-weight="bold" stroke="#65b144" stroke-width="0" y="10" font-size="12px" fill="#000000">Aliyeva</text></g><g class="node" transform="translate(846.7489030669776,524.1906153307)"><circle class="outline" cx="0" cy="0" r="20" fill="#008cc1" stroke="#008cc1" stroke-width="2px"/><text text-anchor="middle" font-weight="bold" stroke="#008cc1" stroke-width="0" y="-15" font-size="12px" fill="#000000">Mossack</text><text text-anchor="middle" font-weight="bold" stroke="#008cc1" stroke-width="0" y="-5" font-size="12px" fill="#000000">Fonseca</text><text text-anchor="middle" font-weight="bold" stroke="#008cc1" stroke-width="0" y="5" font-size="12px" fill="#000000">&amp;</text><text text-anchor="middle" font-weight="bold" stroke="#008cc1" stroke-width="0" y="15" font-size="12px" fill="#000000">Co</text><text text-anchor="middle" font-weight="bold" stroke="#008cc1" stroke-width="0" y="25" font-size="12px" fill="#000000">(UK)</text></g><g class="node" transform="translate(671.5003415080378,526.7115638086118)"><circle class="outline" cx="0" cy="0" r="20" fill="#f58220" stroke="#f58220" stroke-width="2px"/><text text-anchor="middle" font-weight="bold" stroke="#f58220" stroke-width="0" y="-20" font-size="12px" fill="#000000">FM</text><text text-anchor="middle" font-weight="bold" stroke="#f58220" stroke-width="0" y="-10" font-size="12px" fill="#000000">Management</text><text text-anchor="middle" font-weight="bold" stroke="#f58220" stroke-width="0" y="0" font-size="12px" fill="#000000">Holding</text><text text-anchor="middle" font-weight="bold" stroke="#f58220" stroke-width="0" y="10" font-size="12px" fill="#000000">Group</text><text text-anchor="middle" font-weight="bold" stroke="#f58220" stroke-width="0" y="20" font-size="12px" fill="#000000">S.</text><text text-anchor="middle" font-weight="bold" stroke="#f58220" stroke-width="0" y="30" font-size="12px" fill="#000000">...</text></g><g class="node" transform="translate(742.8074784605676,284.2630093271857)"><circle class="outline" cx="0" cy="0" r="20" fill="#f58220" stroke="#f58220" stroke-width="2px"/><text text-anchor="middle" font-weight="bold" stroke="#f58220" stroke-width="0" y="-5" font-size="12px" fill="#000000">Kingsview</text><text text-anchor="middle" font-weight="bold" stroke="#f58220" stroke-width="0" y="5" font-size="12px" fill="#000000">Developents</text><text text-anchor="middle" font-weight="bold" stroke="#f58220" stroke-width="0" y="15" font-size="12px" fill="#000000">Limited</text></g><g class="node" transform="translate(792.4349852683472,56.91350468512542)"><circle class="outline" cx="0" cy="0" r="20" fill="#65b144" stroke="#65b144" stroke-width="2px"/><text text-anchor="middle" font-weight="bold" stroke="#65b144" stroke-width="0" y="-10" font-size="12px" fill="#000000">Leyla</text><text text-anchor="middle" font-weight="bold" stroke="#65b144" stroke-width="0" y="0" font-size="12px" fill="#000000">Ilham</text><text text-anchor="middle" font-weight="bold" stroke="#65b144" stroke-width="0" y="10" font-size="12px" fill="#000000">Qizi</text><text text-anchor="middle" font-weight="bold" stroke="#65b144" stroke-width="0" y="20" font-size="12px" fill="#000000">Aliyeva</text></g><g class="node" transform="translate(942.0898979925604,171.40556500673927)"><circle class="outline" cx="0" cy="0" r="20" fill="#65b144" stroke="#65b144" stroke-width="2px"/><text text-anchor="middle" font-weight="bold" stroke="#65b144" stroke-width="0" y="-10" font-size="12px" fill="#000000">LEYLA</text><text text-anchor="middle" font-weight="bold" stroke="#65b144" stroke-width="0" y="0" font-size="12px" fill="#000000">ILHAM</text><text text-anchor="middle" font-weight="bold" stroke="#65b144" stroke-width="0" y="10" font-size="12px" fill="#000000">QIZI</text><text text-anchor="middle" font-weight="bold" stroke="#65b144" stroke-width="0" y="20" font-size="12px" fill="#000000">ALIYEVA</text></g><g class="node" transform="translate(561.423905462566,56.19425477141482)"><circle class="outline" cx="0" cy="0" r="20" fill="#f58220" stroke="#f58220" stroke-width="2px"/><text text-anchor="middle" font-weight="bold" stroke="#f58220" stroke-width="0" y="0" font-size="12px" fill="#000000">Exaltation</text><text text-anchor="middle" font-weight="bold" stroke="#f58220" stroke-width="0" y="10" font-size="12px" fill="#000000">Limited</text></g><g class="node" transform="translate(338.34953197339905,252.39118420962598)"><circle class="outline" cx="0" cy="0" r="20" fill="#65b144" stroke="#65b144" stroke-width="2px"/><text text-anchor="middle" font-weight="bold" stroke="#65b144" stroke-width="0" y="-10" font-size="12px" fill="#000000">Arzu</text><text text-anchor="middle" font-weight="bold" stroke="#65b144" stroke-width="0" y="0" font-size="12px" fill="#000000">Ilham</text><text text-anchor="middle" font-weight="bold" stroke="#65b144" stroke-width="0" y="10" font-size="12px" fill="#000000">Qizi</text><text text-anchor="middle" font-weight="bold" stroke="#65b144" stroke-width="0" y="20" font-size="12px" fill="#000000">Aliyeva</text></g><g class="node" transform="translate(337.9683226280012,57.31988953634041)"><circle class="outline" cx="0" cy="0" r="20" fill="#65b144" stroke="#65b144" stroke-width="2px"/><text text-anchor="middle" font-weight="bold" stroke="#65b144" stroke-width="0" y="-10" font-size="12px" fill="#000000">ARZU</text><text text-anchor="middle" font-weight="bold" stroke="#65b144" stroke-width="0" y="0" font-size="12px" fill="#000000">ILHAM</text><text text-anchor="middle" font-weight="bold" stroke="#65b144" stroke-width="0" y="10" font-size="12px" fill="#000000">QIZI</text><text text-anchor="middle" font-weight="bold" stroke="#65b144" stroke-width="0" y="20" font-size="12px" fill="#000000">ALIYEVA</text></g><g class="node" transform="translate(413.8860859794115,469.58120062921057)"><circle class="outline" cx="0" cy="0" r="20" fill="#f58220" stroke="#f58220" stroke-width="2px"/><text text-anchor="middle" font-weight="bold" stroke="#f58220" stroke-width="0" y="-5" font-size="12px" fill="#000000">Redgold</text><text text-anchor="middle" font-weight="bold" stroke="#f58220" stroke-width="0" y="5" font-size="12px" fill="#000000">Estates</text><text text-anchor="middle" font-weight="bold" stroke="#f58220" stroke-width="0" y="15" font-size="12px" fill="#000000">Ltd</text></g><g class="node" transform="translate(179.1212112412444,180.600245121133)"><circle class="outline" cx="0" cy="0" r="20" fill="#65b144" stroke="#65b144" stroke-width="2px"/><text text-anchor="middle" font-weight="bold" stroke="#65b144" stroke-width="0" y="-10" font-size="12px" fill="#000000">WILLY</text><text text-anchor="middle" font-weight="bold" stroke="#65b144" stroke-width="0" y="0" font-size="12px" fill="#000000">&amp;</text><text text-anchor="middle" font-weight="bold" stroke="#65b144" stroke-width="0" y="10" font-size="12px" fill="#000000">MEYRS</text><text text-anchor="middle" font-weight="bold" stroke="#65b144" stroke-width="0" y="20" font-size="12px" fill="#000000">S.A.</text></g><g class="node" transform="translate(165.16244803028826,293.82162611185925)"><circle class="outline" cx="0" cy="0" r="20" fill="#65b144" stroke="#65b144" stroke-width="2px"/><text text-anchor="middle" font-weight="bold" stroke="#65b144" stroke-width="0" y="-5" font-size="12px" fill="#000000">LONDEX</text><text text-anchor="middle" font-weight="bold" stroke="#65b144" stroke-width="0" y="5" font-size="12px" fill="#000000">RESOURCES</text><text text-anchor="middle" font-weight="bold" stroke="#65b144" stroke-width="0" y="15" font-size="12px" fill="#000000">S.A.</text></g><g class="node" transform="translate(162.17940959703543,394.1625406852116)"><circle class="outline" cx="0" cy="0" r="20" fill="#65b144" stroke="#65b144" stroke-width="2px"/><text text-anchor="middle" font-weight="bold" stroke="#65b144" stroke-width="0" y="-5" font-size="12px" fill="#000000">FAGATE</text><text text-anchor="middle" font-weight="bold" stroke="#65b144" stroke-width="0" y="5" font-size="12px" fill="#000000">MINING</text><text text-anchor="middle" font-weight="bold" stroke="#65b144" stroke-width="0" y="15" font-size="12px" fill="#000000">CORPORATION</text></g><g class="node" transform="translate(165.69081936444582,480.8791876411708)"><circle class="outline" cx="0" cy="0" r="20" fill="#65b144" stroke="#65b144" stroke-width="2px"/><text text-anchor="middle" font-weight="bold" stroke="#65b144" stroke-width="0" y="-5" font-size="12px" fill="#000000">GLOBEX</text><text text-anchor="middle" font-weight="bold" stroke="#65b144" stroke-width="0" y="5" font-size="12px" fill="#000000">INTERNATIONAL</text><text text-anchor="middle" font-weight="bold" stroke="#65b144" stroke-width="0" y="15" font-size="12px" fill="#000000">LLP</text></g><g class="node" transform="translate(624.8810560559767,463.1959808043209)"><circle class="outline" cx="0" cy="0" r="20" fill="#008cc1" stroke="#008cc1" stroke-width="2px"/><text text-anchor="middle" font-weight="bold" stroke="#008cc1" stroke-width="0" y="0" font-size="12px" fill="#000000">Associated</text><text text-anchor="middle" font-weight="bold" stroke="#008cc1" stroke-width="0" y="10" font-size="12px" fill="#000000">Trustees</text></g></g></svg>