<svg xmlns="http://www.w3.org/2000/svg" width="729.4642333984375" height="513.2499389648438" viewBox="-257.60174560546875 -124.8200912475586 729.4642333984375 513.2499389648438"><title>Neo4j Graph Visualization</title><desc>Created using Neo4j (http://www.neo4j.com/)</desc><g class="layer relationships"><g class="relationship" transform="translate(59.02520751953125 120.48736572265736) rotate(420.9262451483889)"><path class="outline" fill="#A5ABB6" stroke="none" d="M 32.5 2.5 L 51.24425534800956 2.5 L 51.24425534800956 -2.5 L 32.5 -2.5 Z M 77.94425611094901 2.5 L 96.68851145895857 2.5 L 96.68851145895857 5.5 L 107.68851145895857 0 L 96.68851145895857 -5.5 L 96.68851145895857 -2.5 L 77.94425611094901 -2.5 Z"/><text text-anchor="middle" pointer-events="none" font-size="8px" fill="#000000" x="64.59425572947929" y="3" font-family="sans-serif">DATE</text></g><g class="relationship" transform="translate(59.02520751953125 120.48736572265736) rotate(351.25501151824903)"><path class="outline" fill="#6DCE9E" stroke="none" d="M 32.5 2.5 L 36.54214970148952 2.5 L 36.54214970148952 -2.5 L 32.5 -2.5 Z M 112.64214817561061 2.5 L 116.68429787710014 2.5 L 116.68429787710014 5.5 L 127.68429787710014 0 L 116.68429787710014 -5.5 L 116.68429787710014 -2.5 L 112.64214817561061 -2.5 Z"/><text text-anchor="middle" pointer-events="none" font-size="8px" fill="#000000" x="74.59214893855007" y="3" font-family="sans-serif">PLACE_OF_ISSUE</text></g><g class="relationship" transform="translate(59.02520751953125 120.48736572265736) rotate(496.93960043998356)"><path class="outline" fill="#DE9BF9" stroke="none" d="M 32.5 2.5 L 81.6773090303889 2.5 L 81.6773090303889 -2.5 L 32.5 -2.5 Z M 117.81064223656566 2.5 L 166.98795126695455 2.5 L 166.98795126695455 5.5 L 177.98795126695455 0 L 166.98795126695455 -5.5 L 166.98795126695455 -2.5 L 117.81064223656566 -2.5 Z"/><text text-anchor="middle" pointer-events="none" font-size="8px" fill="#000000" x="99.74397563347728" y="3" transform="rotate(180 99.74397563347728 0)" font-family="sans-serif">ACTION</text></g><g class="relationship" transform="translate(59.02520751953125 120.48736572265736) rotate(381.1658792433468)"><path class="outline" fill="#DE9BF9" stroke="none" d="M 32.5 2.5 L 77.06903179340704 2.5 L 77.06903179340704 -2.5 L 32.5 -2.5 Z M 113.20236499958379 2.5 L 157.77139679299083 2.5 L 157.77139679299083 5.5 L 168.77139679299083 0 L 157.77139679299083 -5.5 L 157.77139679299083 -2.5 L 113.20236499958379 -2.5 Z"/><text text-anchor="middle" pointer-events="none" font-size="8px" fill="#000000" x="95.13569839649541" y="3" font-family="sans-serif">ACTION</text></g><g class="relationship" transform="translate(59.02520751953125 120.48736572265736) rotate(295.46447981460545)"><path class="outline" fill="#DE9BF9" stroke="none" d="M 32.5 2.5 L 61.51048198214902 2.5 L 61.51048198214902 -2.5 L 32.5 -2.5 Z M 97.64381518832577 2.5 L 126.65429717047479 2.5 L 126.65429717047479 5.5 L 137.6542971704748 0 L 126.65429717047479 -5.5 L 126.65429717047479 -2.5 L 97.64381518832577 -2.5 Z"/><text text-anchor="middle" pointer-events="none" font-size="8px" fill="#000000" x="79.5771485852374" y="3" font-family="sans-serif">ACTION</text></g><g class="relationship" transform="translate(59.02520751953125 120.48736572265736) rotate(313.98188456649854)"><path class="outline" fill="#FFD86E" stroke="none" d="M 32.5 2.5 L 34.261035976132575 2.5 L 34.261035976132575 -2.5 L 32.5 -2.5 Z M 64.22770315142554 2.5 L 65.98873912755812 2.5 L 65.98873912755812 5.5 L 76.98873912755812 0 L 65.98873912755812 -5.5 L 65.98873912755812 -2.5 L 64.22770315142554 -2.5 Z"/><text text-anchor="middle" pointer-events="none" font-size="8px" fill="#000000" x="49.24436956377906" y="3" font-family="sans-serif">REF…</text></g><g class="relationship" transform="translate(59.02520751953125 120.48736572265736) rotate(271.44697843078643)"><path class="outline" fill="#FFD86E" stroke="none" d="M 32.5 2.5 L 35.08805563006848 2.5 L 35.08805563006848 -2.5 L 32.5 -2.5 Z M 81.48805715594739 2.5 L 84.07611278601587 2.5 L 84.07611278601587 5.5 L 95.07611278601587 0 L 84.07611278601587 -5.5 L 84.07611278601587 -2.5 L 81.48805715594739 -2.5 Z"/><text text-anchor="middle" pointer-events="none" font-size="8px" fill="#000000" x="58.288056393007935" y="3" font-family="sans-serif">REFERE…</text></g><g class="relationship" transform="translate(59.02520751953125 120.48736572265736) rotate(255.3931184634601)"><path class="outline" fill="#FFD86E" stroke="none" d="M 32.5 2.5 L 59.20198019215982 2.5 L 59.20198019215982 -2.5 L 32.5 -2.5 Z M 119.80197866628092 2.5 L 146.50395885844074 2.5 L 146.50395885844074 5.5 L 157.50395885844074 0 L 146.50395885844074 -5.5 L 146.50395885844074 -2.5 L 119.80197866628092 -2.5 Z"/><text text-anchor="middle" pointer-events="none" font-size="8px" fill="#000000" x="89.50197942922037" y="3" transform="rotate(180 89.50197942922037 0)" font-family="sans-serif">REFERENCES</text></g><g class="relationship" transform="translate(59.02520751953125 120.48736572265736) rotate(224.41170558104358)"><path class="outline" fill="#FFD86E" stroke="none" d="M 32.5 2.5 L 74.33406765622219 2.5 L 74.33406765622219 -2.5 L 32.5 -2.5 Z M 134.9340661303433 2.5 L 176.76813378656547 2.5 L 176.76813378656547 5.5 L 187.76813378656547 0 L 176.76813378656547 -5.5 L 176.76813378656547 -2.5 L 134.9340661303433 -2.5 Z"/><text text-anchor="middle" pointer-events="none" font-size="8px" fill="#000000" x="104.63406689328274" y="3" transform="rotate(180 104.63406689328274 0)" font-family="sans-serif">REFERENCES</text></g><g class="relationship" transform="translate(59.02520751953125 120.48736572265736) rotate(192.50498202794165)"><path class="outline" fill="#FFD86E" stroke="none" d="M 32.5 2.5 L 86.67424780119211 2.5 L 86.67424780119211 -2.5 L 32.5 -2.5 Z M 147.2742462753132 2.5 L 201.4484940765053 2.5 L 201.4484940765053 5.5 L 212.4484940765053 0 L 201.4484940765053 -5.5 L 201.4484940765053 -2.5 L 147.2742462753132 -2.5 Z"/><text text-anchor="middle" pointer-events="none" font-size="8px" fill="#000000" x="116.97424703825266" y="3" transform="rotate(180 116.97424703825266 0)" font-family="sans-serif">REFERENCES</text></g><g class="relationship" transform="translate(81.55454007534759 -88.320091322314) rotate(456.1581197799677)"><path class="outline" fill="#68BDF6" stroke="none" d="M 32.5 2.5 L 73.44300454895112 2.5 L 73.44300454895112 -2.5 L 32.5 -2.5 Z M 125.57633966247651 2.5 L 166.51934421142764 2.5 L 166.51934421142764 5.5 L 177.51934421142764 0 L 166.51934421142764 -5.5 L 166.51934421142764 -2.5 L 125.57633966247651 -2.5 Z"/><text text-anchor="middle" pointer-events="none" font-size="8px" fill="#000000" x="99.50967210571382" y="3" transform="rotate(180 99.50967210571382 0)" font-family="sans-serif">PERSON_IN</text></g><g class="relationship" transform="translate(-84.45627925891148 43.329547409351136) rotate(388.26934267839766)"><path class="outline" fill="#68BDF6" stroke="none" d="M 32.5 2.5 L 49.88924993089073 2.5 L 49.88924993089073 -2.5 L 32.5 -2.5 Z M 102.02258504441612 2.5 L 119.41183497530685 2.5 L 119.41183497530685 5.5 L 130.41183497530685 0 L 119.41183497530685 -5.5 L 119.41183497530685 -2.5 L 102.02258504441612 -2.5 Z"/><text text-anchor="middle" pointer-events="none" font-size="8px" fill="#000000" x="75.95591748765342" y="3" font-family="sans-serif">PERSON_IN</text></g><g class="relationship" transform="translate(-10.894727084324085 8.324185252205307) rotate(418.0615400858226)"><path class="outline" fill="#68BDF6" stroke="none" d="M 32.5 2.5 L 34.519216541610774 2.5 L 34.519216541610774 -2.5 L 32.5 -2.5 Z M 86.65255165513616 2.5 L 88.67176819674694 2.5 L 88.67176819674694 5.5 L 99.67176819674694 0 L 88.67176819674694 -5.5 L 88.67176819674694 -2.5 L 86.65255165513616 -2.5 Z"/><text text-anchor="middle" pointer-events="none" font-size="8px" fill="#000000" x="60.58588409837347" y="3" font-family="sans-serif">PERSON_IN</text></g><g class="relationship" transform="translate(88.80045187895531 341.59418773666005) rotate(262.33043053654535)"><path class="outline" fill="#68BDF6" stroke="none" d="M 32.5 2.5 L 79.98465686141182 2.5 L 79.98465686141182 -2.5 L 32.5 -2.5 Z M 132.1179919749372 2.5 L 179.60264883634903 2.5 L 179.60264883634903 5.5 L 190.60264883634903 0 L 179.60264883634903 -5.5 L 179.60264883634903 -2.5 L 132.1179919749372 -2.5 Z"/><text text-anchor="middle" pointer-events="none" font-size="8px" fill="#000000" x="106.05132441817452" y="3" transform="rotate(180 106.05132441817452 0)" font-family="sans-serif">PERSON_IN</text></g><g class="relationship" transform="translate(-107.2184502322991 337.67997332244465) rotate(307.4311811758392)"><path class="outline" fill="#68BDF6" stroke="none" d="M 32.5 2.5 L 105.19003478237579 2.5 L 105.19003478237579 -2.5 L 32.5 -2.5 Z M 157.32336989590118 2.5 L 230.01340467827697 2.5 L 230.01340467827697 5.5 L 241.01340467827697 0 L 230.01340467827697 -5.5 L 230.01340467827697 -2.5 L 157.32336989590118 -2.5 Z"/><text text-anchor="middle" pointer-events="none" font-size="8px" fill="#000000" x="131.25670233913849" y="3" font-family="sans-serif">PERSON_IN</text></g><g class="relationship" transform="translate(212.247439916825 -13.856729060997573) rotate(498.7559605782826)"><path class="outline" fill="#6DCE9E" stroke="none" d="M 40 2.5 L 77.83889650733589 2.5 L 77.83889650733589 -2.5 L 40 -2.5 Z M 122.43889498145698 2.5 L 160.27779148879287 2.5 L 160.27779148879287 5.5 L 171.27779148879287 0 L 160.27779148879287 -5.5 L 160.27779148879287 -2.5 L 122.43889498145698 -2.5 Z"/><text text-anchor="middle" pointer-events="none" font-size="8px" fill="#000000" x="100.13889574439644" y="3" transform="rotate(180 100.13889574439644 0)" font-family="sans-serif">PLACE_IN</text></g><g class="relationship" transform="translate(-1.7073041482443045 337.40151686728535) rotate(285.6414012602713)"><path class="outline" fill="#6DCE9E" stroke="none" d="M 40 2.5 L 88.57791353356552 2.5 L 88.57791353356552 -2.5 L 40 -2.5 Z M 133.17791200768661 2.5 L 181.75582554125214 2.5 L 181.75582554125214 5.5 L 192.75582554125214 0 L 181.75582554125214 -5.5 L 181.75582554125214 -2.5 L 133.17791200768661 -2.5 Z"/><text text-anchor="middle" pointer-events="none" font-size="8px" fill="#000000" x="110.87791277062607" y="3" font-family="sans-serif">PLACE_IN</text></g><g class="relationship" transform="translate(-93.55171655037213 168.54066718983003) rotate(342.5184524731992)"><path class="outline" fill="#6DCE9E" stroke="none" d="M 40 2.5 L 55.93255751834714 2.5 L 55.93255751834714 -2.5 L 40 -2.5 Z M 100.53255599246823 2.5 L 116.46511351081537 2.5 L 116.46511351081537 5.5 L 127.46511351081537 0 L 116.46511351081537 -5.5 L 116.46511351081537 -2.5 L 100.53255599246823 -2.5 Z"/><text text-anchor="middle" pointer-events="none" font-size="8px" fill="#000000" x="78.23255675540769" y="3" font-family="sans-serif">PLACE_IN</text></g><g class="relationship" transform="translate(400.555632040977 265.92839305610215) rotate(205.31512513866846)"><path class="outline" fill="#DE9BF9" stroke="none" d="M 32.5 2.5 L 61.52302107979922 2.5 L 61.52302107979922 -2.5 L 32.5 -2.5 Z M 97.65635428597598 2.5 L 126.6793753657752 2.5 L 126.6793753657752 5.5 L 137.6793753657752 0 L 126.6793753657752 -5.5 L 126.6793753657752 -2.5 L 97.65635428597598 -2.5 Z"/><text text-anchor="middle" pointer-events="none" font-size="8px" fill="#000000" x="79.5896876828876" y="3" transform="rotate(180 79.5896876828876 0)" font-family="sans-serif">ACTION</text></g><g class="relationship" transform="translate(326.54507300151045 277.3951445023697) rotate(226.53919907890997)"><path class="outline" fill="#DE9BF9" stroke="none" d="M 32.5 2.5 L 34.45869851300915 2.5 L 34.45869851300915 -2.5 L 32.5 -2.5 Z M 70.59203171918591 2.5 L 72.55073023219506 2.5 L 72.55073023219506 5.5 L 83.55073023219506 0 L 72.55073023219506 -5.5 L 72.55073023219506 -2.5 L 70.59203171918591 -2.5 Z"/><text text-anchor="middle" pointer-events="none" font-size="8px" fill="#000000" x="52.52536511609753" y="3" transform="rotate(180 52.52536511609753 0)" font-family="sans-serif">ACTION</text></g><g class="relationship" transform="translate(394.1779745404135 191.22574965794772) rotate(539.2483731498779)"><path class="outline" fill="#DE9BF9" stroke="none" d="M 32.5 2.5 L 50.16934890645368 2.5 L 50.16934890645368 -2.5 L 32.5 -2.5 Z M 86.30268211263044 2.5 L 103.97203101908411 2.5 L 103.97203101908411 5.5 L 114.97203101908411 0 L 103.97203101908411 -5.5 L 103.97203101908411 -2.5 L 86.30268211263044 -2.5 Z"/><text text-anchor="middle" pointer-events="none" font-size="8px" fill="#000000" x="68.23601550954206" y="3" transform="rotate(180 68.23601550954206 0)" font-family="sans-serif">ACTION</text></g><g class="relationship" transform="translate(366.7250132178123 35.235277777892506) rotate(487.23101036808714)"><path class="outline" fill="#DE9BF9" stroke="none" d="M 32.5 2.5 L 75.60722051457361 2.5 L 75.60722051457361 -2.5 L 32.5 -2.5 Z M 111.74055372075037 2.5 L 154.84777423532398 2.5 L 154.84777423532398 5.5 L 165.84777423532398 0 L 154.84777423532398 -5.5 L 154.84777423532398 -2.5 L 111.74055372075037 -2.5 Z"/><text text-anchor="middle" pointer-events="none" font-size="8px" fill="#000000" x="93.67388711766199" y="3" transform="rotate(180 93.67388711766199 0)" font-family="sans-serif">ACTION</text></g><g class="relationship" transform="translate(364.39725467970754 108.85627798801093) rotate(504.38249620182984)"><path class="outline" fill="#DE9BF9" stroke="none" d="M 32.5 2.5 L 48.81327505458036 2.5 L 48.81327505458036 -2.5 L 32.5 -2.5 Z M 84.94660826075712 2.5 L 101.25988331533748 2.5 L 101.25988331533748 5.5 L 112.25988331533748 0 L 101.25988331533748 -5.5 L 101.25988331533748 -2.5 L 84.94660826075712 -2.5 Z"/><text text-anchor="middle" pointer-events="none" font-size="8px" fill="#000000" x="66.87994165766874" y="3" transform="rotate(180 66.87994165766874 0)" font-family="sans-serif">ACTION</text></g><g class="relationship" transform="translate(435.3625041031461 94.47123290669609) rotate(512.3836820020003)"><path class="outline" fill="#DE9BF9" stroke="none" d="M 32.5 2.5 L 82.88289821137452 2.5 L 82.88289821137452 -2.5 L 32.5 -2.5 Z M 119.01623141755128 2.5 L 169.3991296289258 2.5 L 169.3991296289258 5.5 L 180.3991296289258 0 L 169.3991296289258 -5.5 L 169.3991296289258 -2.5 L 119.01623141755128 -2.5 Z"/><text text-anchor="middle" pointer-events="none" font-size="8px" fill="#000000" x="100.9495648144629" y="3" transform="rotate(180 100.9495648144629 0)" font-family="sans-serif">ACTION</text></g><g class="relationship" transform="translate(297.1998189746386 63.28032532324067) rotate(471.2398952086978)"><path class="outline" fill="#DE9BF9" stroke="none" d="M 32.5 2.5 L 46.106058181618735 2.5 L 46.106058181618735 -2.5 L 32.5 -2.5 Z M 82.2393913877955 2.5 L 95.84544956941423 2.5 L 95.84544956941423 5.5 L 106.84544956941423 0 L 95.84544956941423 -5.5 L 95.84544956941423 -2.5 L 82.2393913877955 -2.5 Z"/><text text-anchor="middle" pointer-events="none" font-size="8px" fill="#000000" x="64.17272478470711" y="3" transform="rotate(180 64.17272478470711 0)" font-family="sans-serif">ACTION</text></g><g class="relationship" transform="translate(178.23867519556936 314.4724650266154) rotate(299.4444529756664)"><path class="outline" fill="#DE9BF9" stroke="none" d="M 32.5 2.5 L 46.08631142721502 2.5 L 46.08631142721502 -2.5 L 32.5 -2.5 Z M 82.21964463339178 2.5 L 95.8059560606068 2.5 L 95.8059560606068 5.5 L 106.8059560606068 0 L 95.8059560606068 -5.5 L 95.8059560606068 -2.5 L 82.21964463339178 -2.5 Z"/><text text-anchor="middle" pointer-events="none" font-size="8px" fill="#000000" x="64.1529780303034" y="3" font-family="sans-serif">ACTION</text></g><g class="relationship" transform="translate(244.38794348182853 349.6480469807985) rotate(270.85328578162034)"><path class="outline" fill="#DE9BF9" stroke="none" d="M 32.5 2.5 L 54.68589165651278 2.5 L 54.68589165651278 -2.5 L 32.5 -2.5 Z M 90.81922486268954 2.5 L 113.00511651920232 2.5 L 113.00511651920232 5.5 L 124.00511651920232 0 L 113.00511651920232 -5.5 L 113.00511651920232 -2.5 L 90.81922486268954 -2.5 Z"/><text text-anchor="middle" pointer-events="none" font-size="8px" fill="#000000" x="72.75255825960116" y="3" font-family="sans-serif">ACTION</text></g><g class="relationship" transform="translate(319.33123840042003 351.9298522389471) rotate(245.42320818790847)"><path class="outline" fill="#DE9BF9" stroke="none" d="M 32.5 2.5 L 63.72646846783509 2.5 L 63.72646846783509 -2.5 L 32.5 -2.5 Z M 99.85980167401185 2.5 L 131.08627014184694 2.5 L 131.08627014184694 5.5 L 142.08627014184694 0 L 131.08627014184694 -5.5 L 131.08627014184694 -2.5 L 99.85980167401185 -2.5 Z"/><text text-anchor="middle" pointer-events="none" font-size="8px" fill="#000000" x="81.79313507092347" y="3" transform="rotate(180 81.79313507092347 0)" font-family="sans-serif">ACTION</text></g><g class="relationship" transform="translate(212.247439916825 -13.856729060997573) rotate(377.62993121665323)"><path class="outline" fill="#6DCE9E" stroke="none" d="M 40 2.5 L 56.99527482076398 2.5 L 56.99527482076398 -2.5 L 40 -2.5 Z M 101.59527329488508 2.5 L 118.59054811564906 2.5 L 118.59054811564906 5.5 L 129.59054811564906 0 L 118.59054811564906 -5.5 L 118.59054811564906 -2.5 L 101.59527329488508 -2.5 Z"/><text text-anchor="middle" pointer-events="none" font-size="8px" fill="#000000" x="79.29527405782453" y="3" font-family="sans-serif">PLACE_IN</text></g><g class="relationship" transform="translate(-84.45627925891148 43.329547409351136) rotate(482.5546666668955)"><path class="outline" fill="#68BDF6" stroke="none" d="M 32.5 2.5 L 95.40268491188827 2.5 L 95.40268491188827 -2.5 L 32.5 -2.5 Z M 147.53602002541368 2.5 L 210.43870493730194 2.5 L 210.43870493730194 5.5 L 221.43870493730194 0 L 210.43870493730194 -5.5 L 210.43870493730194 -2.5 L 147.53602002541368 -2.5 Z"/><text text-anchor="middle" pointer-events="none" font-size="8px" fill="#000000" x="121.46935246865097" y="3" transform="rotate(180 121.46935246865097 0)" font-family="sans-serif">PERSON_IN</text></g><g class="relationship" transform="translate(-1.7073041482443045 337.40151686728535) rotate(200.04137731744436)"><path class="outline" fill="#6DCE9E" stroke="none" d="M 40 2.5 L 92.71805710646764 2.5 L 92.71805710646764 -2.5 L 40 -2.5 Z M 137.31805558058875 2.5 L 190.03611268705637 2.5 L 190.03611268705637 5.5 L 201.03611268705637 0 L 190.03611268705637 -5.5 L 190.03611268705637 -2.5 L 137.31805558058875 -2.5 Z"/><text text-anchor="middle" pointer-events="none" font-size="8px" fill="#000000" x="115.01805634352819" y="3" transform="rotate(180 115.01805634352819 0)" font-family="sans-serif">PLACE_IN</text></g></g><g class="layer nodes"><g class="node" transform="translate(59.02520751953125,120.48736572265736)"><circle class="outline" cx="0" cy="0" r="32.5" fill="#FF756E" stroke="#E06760" stroke-width="2px"/><text text-anchor="middle" pointer-events="none" font-family="sans-serif" dy="2.03125" font-size="32.5" fill="#FFFFFF"/><text text-anchor="middle" pointer-events="none" y="5" font-size="32.5" fill="#FFFFFF" dy="2.03125" font-family="sans-serif"/><text text-anchor="middle" pointer-events="none" y="0" font-size="10px" fill="#FFFFFF" font-family="sans-serif"> RI III,2,3 n.</text><text text-anchor="middle" pointer-events="none" y="10" font-size="10px" fill="#FFFFFF" font-family="sans-serif"> 1289</text></g><g class="node" transform="translate(127.14772383485052,243.01141036675003)"><circle class="outline" cx="0" cy="0" r="32.5" fill="#A5ABB6" stroke="#9AA1AC" stroke-width="2px"/><text text-anchor="middle" pointer-events="none" font-family="sans-serif" dy="2.03125" font-size="32.5" fill="#FFFFFF"/><text text-anchor="middle" pointer-events="none" y="5" font-size="10px" fill="#FFFFFF" font-family="sans-serif"> 1089-01-02</text></g><g class="node" transform="translate(217.34733290539685,96.13343586150776)"><circle class="outline" cx="0" cy="0" r="32.5" fill="#6DCE9E" stroke="#60B58B" stroke-width="2px"/><text text-anchor="middle" pointer-events="none" font-family="sans-serif" dy="2.03125" font-size="32.5" fill="#FFFFFF"/><text text-anchor="middle" pointer-events="none" y="5" font-size="10px" fill="#FFFFFF" font-family="sans-serif"> Bamberg</text></g><g class="node" transform="translate(-94.76452043439964,264.2020038233594)"><circle class="outline" cx="0" cy="0" r="32.5" fill="#DE9BF9" stroke="#BF85D6" stroke-width="2px"/><text text-anchor="middle" pointer-events="none" font-family="sans-serif" dy="2.03125" font-size="32.5" fill="#FFFFFF"/><text text-anchor="middle" pointer-events="none" y="5" font-size="10px" fill="#FFFFFF" font-family="sans-serif"> bestätigen</text></g><g class="node" transform="translate(246.71863267756092,193.16028584734116)"><circle class="outline" cx="0" cy="0" r="32.5" fill="#DE9BF9" stroke="#BF85D6" stroke-width="2px"/><text text-anchor="middle" pointer-events="none" font-family="sans-serif" dy="2.03125" font-size="32.5" fill="#FFFFFF"/><text text-anchor="middle" pointer-events="none" y="5" font-size="10px" fill="#FFFFFF" font-family="sans-serif"> übergeben</text></g><g class="node" transform="translate(132.18329628811014,-33.13678242244052)"><circle class="outline" cx="0" cy="0" r="32.5" fill="#DE9BF9" stroke="#BF85D6" stroke-width="2px"/><text text-anchor="middle" pointer-events="none" font-family="sans-serif" dy="2.03125" font-size="32.5" fill="#FFFFFF"/><text text-anchor="middle" pointer-events="none" y="5" font-size="10px" fill="#FFFFFF" font-family="sans-serif"> erhalten</text></g><g class="node" transform="translate(135.05757108726613,41.703714588388)"><circle class="outline" cx="0" cy="0" r="32.5" fill="#FFD86E" stroke="#EDBA39" stroke-width="2px"/><text text-anchor="middle" pointer-events="none" font-family="sans-serif" dy="2.03125" font-size="32.5" fill="#604A0E"/><text text-anchor="middle" pointer-events="none" y="5" font-size="10px" fill="#604A0E" font-family="sans-serif"> Stumpf</text></g><g class="node" transform="translate(62.24674081513624,-7.048065733920818)"><circle class="outline" cx="0" cy="0" r="32.5" fill="#FFD86E" stroke="#EDBA39" stroke-width="2px"/><text text-anchor="middle" pointer-events="none" font-family="sans-serif" dy="2.03125" font-size="32.5" fill="#604A0E"/><text text-anchor="middle" pointer-events="none" y="5" font-size="10px" fill="#604A0E" font-family="sans-serif"> Böhmer</text></g><g class="node" transform="translate(11.10894827046243,-63.37545401384093)"><circle class="outline" cx="0" cy="0" r="32.5" fill="#FFD86E" stroke="#EDBA39" stroke-width="2px"/><text text-anchor="middle" pointer-events="none" font-family="sans-serif" dy="2.03125" font-size="32.5" fill="#604A0E"/><text text-anchor="middle" pointer-events="none" y="5" font-size="10px" fill="#604A0E" font-family="sans-serif"> Posse</text></g><g class="node" transform="translate(-98.31886744134323,-33.65832132866114)"><circle class="outline" cx="0" cy="0" r="32.5" fill="#FFD86E" stroke="#EDBA39" stroke-width="2px"/><text text-anchor="middle" pointer-events="none" font-family="sans-serif" dy="2.03125" font-size="32.5" fill="#604A0E"/><text text-anchor="middle" pointer-events="none" y="5" font-size="10px" fill="#604A0E" font-family="sans-serif"> Dobenecker</text></g><g class="node" transform="translate(-180.11241835571184,67.45001434553797)"><circle class="outline" cx="0" cy="0" r="32.5" fill="#FFD86E" stroke="#EDBA39" stroke-width="2px"/><text text-anchor="middle" pointer-events="none" font-family="sans-serif" dy="2.03125" font-size="32.5" fill="#604A0E"/><text text-anchor="middle" pointer-events="none" y="5" font-size="10px" fill="#604A0E" font-family="sans-serif"> Guttenberg</text></g><g class="node" transform="translate(81.55454007534759,-88.320091322314)"><circle class="outline" cx="0" cy="0" r="32.5" fill="#68BDF6" stroke="#5CA8DB" stroke-width="2px"/><text text-anchor="middle" pointer-events="none" font-family="sans-serif" dy="2.03125" font-size="32.5" fill="#FFFFFF"/><text text-anchor="middle" pointer-events="none" font-family="sans-serif" dy="2.03125" font-size="32.5" fill="#FFFFFF"/><text text-anchor="middle" pointer-events="none" font-family="sans-serif" dy="2.03125" font-size="32.5" fill="#FFFFFF"/><text text-anchor="middle" pointer-events="none" y="-5" font-size="32.5" fill="#FFFFFF" dy="2.03125" font-family="sans-serif"/><text text-anchor="middle" pointer-events="none" y="5" font-size="32.5" fill="#FFFFFF" dy="2.03125" font-family="sans-serif"/><text text-anchor="middle" pointer-events="none" y="-15" font-size="10px" fill="#FFFFFF" font-family="sans-serif"> Gisela,</text><text text-anchor="middle" pointer-events="none" y="-5" font-size="10px" fill="#FFFFFF" font-family="sans-serif"> Gem.in (1)</text><text text-anchor="middle" pointer-events="none" y="5" font-size="10px" fill="#FFFFFF" font-family="sans-serif"> d. Freien</text><text text-anchor="middle" pointer-events="none" y="15" font-size="10px" fill="#FFFFFF" font-family="sans-serif"> Rupert und</text><text text-anchor="middle" pointer-events="none" y="25" font-size="10px" fill="#FFFFFF" font-family="sans-serif"> (2) Rut…</text></g><g class="node" transform="translate(-84.45627925891148,43.329547409351136)"><circle class="outline" cx="0" cy="0" r="32.5" fill="#68BDF6" stroke="#5CA8DB" stroke-width="2px"/><text text-anchor="middle" pointer-events="none" font-family="sans-serif" dy="2.03125" font-size="32.5" fill="#FFFFFF"/><text text-anchor="middle" pointer-events="none" font-family="sans-serif" dy="2.03125" font-size="32.5" fill="#FFFFFF"/><text text-anchor="middle" pointer-events="none" y="0" font-size="32.5" fill="#FFFFFF" dy="2.03125" font-family="sans-serif"/><text text-anchor="middle" pointer-events="none" y="-5" font-size="10px" fill="#FFFFFF" font-family="sans-serif"> Giselbert,</text><text text-anchor="middle" pointer-events="none" y="5" font-size="10px" fill="#FFFFFF" font-family="sans-serif"> Abt d. Kl.s</text><text text-anchor="middle" pointer-events="none" y="15" font-size="10px" fill="#FFFFFF" font-family="sans-serif"> Reinhards…</text></g><g class="node" transform="translate(-10.894727084324085,8.324185252205307)"><circle class="outline" cx="0" cy="0" r="32.5" fill="#68BDF6" stroke="#5CA8DB" stroke-width="2px"/><text text-anchor="middle" pointer-events="none" font-family="sans-serif" dy="2.03125" font-size="32.5" fill="#FFFFFF"/><text text-anchor="middle" pointer-events="none" y="5" font-size="10px" fill="#FFFFFF" font-family="sans-serif"> Ludwig, Gf.</text></g><g class="node" transform="translate(88.80045187895531,341.59418773666005)"><circle class="outline" cx="0" cy="0" r="32.5" fill="#68BDF6" stroke="#5CA8DB" stroke-width="2px"/><text text-anchor="middle" pointer-events="none" font-family="sans-serif" dy="2.03125" font-size="32.5" fill="#FFFFFF"/><text text-anchor="middle" pointer-events="none" font-family="sans-serif" dy="2.03125" font-size="32.5" fill="#FFFFFF"/><text text-anchor="middle" pointer-events="none" font-family="sans-serif" dy="2.03125" font-size="32.5" fill="#FFFFFF"/><text text-anchor="middle" pointer-events="none" y="-5" font-size="10px" fill="#FFFFFF" font-family="sans-serif"> Rupert,</text><text text-anchor="middle" pointer-events="none" y="5" font-size="10px" fill="#FFFFFF" font-family="sans-serif"> Freier, Gem.</text><text text-anchor="middle" pointer-events="none" y="15" font-size="10px" fill="#FFFFFF" font-family="sans-serif"> Giselas</text></g><g class="node" transform="translate(-107.2184502322991,337.67997332244465)"><circle class="outline" cx="0" cy="0" r="32.5" fill="#68BDF6" stroke="#5CA8DB" stroke-width="2px"/><text text-anchor="middle" pointer-events="none" font-family="sans-serif" dy="2.03125" font-size="32.5" fill="#FFFFFF"/><text text-anchor="middle" pointer-events="none" font-family="sans-serif" dy="2.03125" font-size="32.5" fill="#FFFFFF"/><text text-anchor="middle" pointer-events="none" y="0" font-size="10px" fill="#FFFFFF" font-family="sans-serif"> Ruthard,</text><text text-anchor="middle" pointer-events="none" y="10" font-size="10px" fill="#FFFFFF" font-family="sans-serif"> Gem. Gisel…</text></g><g class="node" transform="translate(212.247439916825,-13.856729060997573)"><circle class="outline" cx="0" cy="0" r="40" fill="#6DCE9E" stroke="#60B58B" stroke-width="2px"/><text text-anchor="middle" pointer-events="none" font-family="sans-serif" dy="2.5" font-size="40" fill="#FFFFFF"/><text text-anchor="middle" pointer-events="none" y="5" font-size="40" fill="#FFFFFF" dy="2.5" font-family="sans-serif"/><text text-anchor="middle" pointer-events="none" y="0" font-size="10px" fill="#FFFFFF" font-family="sans-serif"> Bamberg</text><text text-anchor="middle" pointer-events="none" y="10" font-size="10px" fill="#FFFFFF" font-family="sans-serif"> (Bayern)</text></g><g class="node" transform="translate(-1.7073041482443045,337.40151686728535)"><circle class="outline" cx="0" cy="0" r="40" fill="#6DCE9E" stroke="#60B58B" stroke-width="2px"/><text text-anchor="middle" pointer-events="none" font-family="sans-serif" dy="2.5" font-size="40" fill="#FFFFFF"/><text text-anchor="middle" pointer-events="none" y="5" font-size="40" fill="#FFFFFF" dy="2.5" font-family="sans-serif"/><text text-anchor="middle" pointer-events="none" y="0" font-size="10px" fill="#FFFFFF" font-family="sans-serif"> Reinhardsbrunn,</text><text text-anchor="middle" pointer-events="none" y="10" font-size="10px" fill="#FFFFFF" font-family="sans-serif"> Kl. (Thüringen)</text></g><g class="node" transform="translate(-93.55171655037213,168.54066718983003)"><circle class="outline" cx="0" cy="0" r="40" fill="#6DCE9E" stroke="#60B58B" stroke-width="2px"/><text text-anchor="middle" pointer-events="none" font-family="sans-serif" dy="2.5" font-size="40" fill="#FFFFFF"/><text text-anchor="middle" pointer-events="none" y="5" font-size="40" fill="#FFFFFF" dy="2.5" font-family="sans-serif"/><text text-anchor="middle" pointer-events="none" y="0" font-size="10px" fill="#FFFFFF" font-family="sans-serif"> Topfstedt</text><text text-anchor="middle" pointer-events="none" y="10" font-size="10px" fill="#FFFFFF" font-family="sans-serif"> (Thüringen)</text></g><g class="node" transform="translate(400.555632040977,265.92839305610215)"><circle class="outline" cx="0" cy="0" r="32.5" fill="#FF756E" stroke="#E06760" stroke-width="2px"/><text text-anchor="middle" pointer-events="none" font-family="sans-serif" dy="2.03125" font-size="32.5" fill="#FFFFFF"/><text text-anchor="middle" pointer-events="none" y="5" font-size="32.5" fill="#FFFFFF" dy="2.03125" font-family="sans-serif"/><text text-anchor="middle" pointer-events="none" y="0" font-size="10px" fill="#FFFFFF" font-family="sans-serif"> RI III,2,3 n.</text><text text-anchor="middle" pointer-events="none" y="10" font-size="10px" fill="#FFFFFF" font-family="sans-serif"> 714</text></g><g class="node" transform="translate(326.54507300151045,277.3951445023697)"><circle class="outline" cx="0" cy="0" r="32.5" fill="#FF756E" stroke="#E06760" stroke-width="2px"/><text text-anchor="middle" pointer-events="none" font-family="sans-serif" dy="2.03125" font-size="32.5" fill="#FFFFFF"/><text text-anchor="middle" pointer-events="none" y="5" font-size="32.5" fill="#FFFFFF" dy="2.03125" font-family="sans-serif"/><text text-anchor="middle" pointer-events="none" y="0" font-size="10px" fill="#FFFFFF" font-family="sans-serif"> RI III,2,3 n.</text><text text-anchor="middle" pointer-events="none" y="10" font-size="10px" fill="#FFFFFF" font-family="sans-serif"> 715</text></g><g class="node" transform="translate(394.1779745404135,191.22574965794772)"><circle class="outline" cx="0" cy="0" r="32.5" fill="#FF756E" stroke="#E06760" stroke-width="2px"/><text text-anchor="middle" pointer-events="none" font-family="sans-serif" dy="2.03125" font-size="32.5" fill="#FFFFFF"/><text text-anchor="middle" pointer-events="none" y="5" font-size="32.5" fill="#FFFFFF" dy="2.03125" font-family="sans-serif"/><text text-anchor="middle" pointer-events="none" y="0" font-size="10px" fill="#FFFFFF" font-family="sans-serif"> RI III,2,3 n.</text><text text-anchor="middle" pointer-events="none" y="10" font-size="10px" fill="#FFFFFF" font-family="sans-serif"> 768</text></g><g class="node" transform="translate(366.7250132178123,35.235277777892506)"><circle class="outline" cx="0" cy="0" r="32.5" fill="#FF756E" stroke="#E06760" stroke-width="2px"/><text text-anchor="middle" pointer-events="none" font-family="sans-serif" dy="2.03125" font-size="32.5" fill="#FFFFFF"/><text text-anchor="middle" pointer-events="none" y="5" font-size="32.5" fill="#FFFFFF" dy="2.03125" font-family="sans-serif"/><text text-anchor="middle" pointer-events="none" y="0" font-size="10px" fill="#FFFFFF" font-family="sans-serif"> RI III,2,3 n.</text><text text-anchor="middle" pointer-events="none" y="10" font-size="10px" fill="#FFFFFF" font-family="sans-serif"> 774</text></g><g class="node" transform="translate(364.39725467970754,108.85627798801093)"><circle class="outline" cx="0" cy="0" r="32.5" fill="#FF756E" stroke="#E06760" stroke-width="2px"/><text text-anchor="middle" pointer-events="none" font-family="sans-serif" dy="2.03125" font-size="32.5" fill="#FFFFFF"/><text text-anchor="middle" pointer-events="none" y="5" font-size="32.5" fill="#FFFFFF" dy="2.03125" font-family="sans-serif"/><text text-anchor="middle" pointer-events="none" y="0" font-size="10px" fill="#FFFFFF" font-family="sans-serif"> RI III,2,3 n.</text><text text-anchor="middle" pointer-events="none" y="10" font-size="10px" fill="#FFFFFF" font-family="sans-serif"> 1027</text></g><g class="node" transform="translate(435.3625041031461,94.47123290669609)"><circle class="outline" cx="0" cy="0" r="32.5" fill="#FF756E" stroke="#E06760" stroke-width="2px"/><text text-anchor="middle" pointer-events="none" font-family="sans-serif" dy="2.03125" font-size="32.5" fill="#FFFFFF"/><text text-anchor="middle" pointer-events="none" y="5" font-size="32.5" fill="#FFFFFF" dy="2.03125" font-family="sans-serif"/><text text-anchor="middle" pointer-events="none" y="0" font-size="10px" fill="#FFFFFF" font-family="sans-serif"> RI III,2,3 n.</text><text text-anchor="middle" pointer-events="none" y="10" font-size="10px" fill="#FFFFFF" font-family="sans-serif"> 1057</text></g><g class="node" transform="translate(297.1998189746386,63.28032532324067)"><circle class="outline" cx="0" cy="0" r="32.5" fill="#FF756E" stroke="#E06760" stroke-width="2px"/><text text-anchor="middle" pointer-events="none" font-family="sans-serif" dy="2.03125" font-size="32.5" fill="#FFFFFF"/><text text-anchor="middle" pointer-events="none" y="5" font-size="32.5" fill="#FFFFFF" dy="2.03125" font-family="sans-serif"/><text text-anchor="middle" pointer-events="none" y="0" font-size="10px" fill="#FFFFFF" font-family="sans-serif"> RI III,2,3 n.</text><text text-anchor="middle" pointer-events="none" y="10" font-size="10px" fill="#FFFFFF" font-family="sans-serif"> 1322</text></g><g class="node" transform="translate(178.23867519556936,314.4724650266154)"><circle class="outline" cx="0" cy="0" r="32.5" fill="#FF756E" stroke="#E06760" stroke-width="2px"/><text text-anchor="middle" pointer-events="none" font-family="sans-serif" dy="2.03125" font-size="32.5" fill="#FFFFFF"/><text text-anchor="middle" pointer-events="none" y="5" font-size="32.5" fill="#FFFFFF" dy="2.03125" font-family="sans-serif"/><text text-anchor="middle" pointer-events="none" y="0" font-size="10px" fill="#FFFFFF" font-family="sans-serif"> RI III,2,3 n.</text><text text-anchor="middle" pointer-events="none" y="10" font-size="10px" fill="#FFFFFF" font-family="sans-serif"> 1332</text></g><g class="node" transform="translate(244.38794348182853,349.6480469807985)"><circle class="outline" cx="0" cy="0" r="32.5" fill="#FF756E" stroke="#E06760" stroke-width="2px"/><text text-anchor="middle" pointer-events="none" font-family="sans-serif" dy="2.03125" font-size="32.5" fill="#FFFFFF"/><text text-anchor="middle" pointer-events="none" y="5" font-size="32.5" fill="#FFFFFF" dy="2.03125" font-family="sans-serif"/><text text-anchor="middle" pointer-events="none" y="0" font-size="10px" fill="#FFFFFF" font-family="sans-serif"> RI III,2,3 n.</text><text text-anchor="middle" pointer-events="none" y="10" font-size="10px" fill="#FFFFFF" font-family="sans-serif"> 1536</text></g><g class="node" transform="translate(319.33123840042003,351.9298522389471)"><circle class="outline" cx="0" cy="0" r="32.5" fill="#FF756E" stroke="#E06760" stroke-width="2px"/><text text-anchor="middle" pointer-events="none" font-family="sans-serif" dy="2.03125" font-size="32.5" fill="#FFFFFF"/><text text-anchor="middle" pointer-events="none" y="5" font-size="32.5" fill="#FFFFFF" dy="2.03125" font-family="sans-serif"/><text text-anchor="middle" pointer-events="none" y="0" font-size="10px" fill="#FFFFFF" font-family="sans-serif"> RI III,2,3 n.</text><text text-anchor="middle" pointer-events="none" y="10" font-size="10px" fill="#FFFFFF" font-family="sans-serif"> 1549</text></g><g class="node" transform="translate(-221.1017260268007,257.36900111552666)"><circle class="outline" cx="0" cy="0" r="32.5" fill="#FF756E" stroke="#E06760" stroke-width="2px"/><text text-anchor="middle" pointer-events="none" font-family="sans-serif" dy="2.03125" font-size="32.5" fill="#FFFFFF"/><text text-anchor="middle" pointer-events="none" font-family="sans-serif" dy="2.03125" font-size="32.5" fill="#FFFFFF"/><text text-anchor="middle" pointer-events="none" y="0" font-size="10px" fill="#FFFFFF" font-family="sans-serif"> RI III,2,3 n.</text><text text-anchor="middle" pointer-events="none" y="10" font-size="10px" fill="#FFFFFF" font-family="sans-serif"> 1248</text></g></g></svg>