<svg xmlns="http://www.w3.org/2000/svg" width="1195.4205322265625" height="714.76953125" viewBox="-499.9397888183594 -318.6328125 1195.4205322265625 714.76953125"><title>Neo4j Graph Visualization</title><desc>Created using Neo4j (http://www.neo4j.com/)</desc><g class="layer relationships"><g class="relationship" transform="translate(584.5720923075914 -70.25845321976584) rotate(539.5742045579734)"><path class="outline" fill="#DA7194" stroke="none" d="M 7.937947238378159,-39.284080664319035 L 12.7675763698235,-37.98998543880643 A 272.170577208485 272.170577208485 0 0 1 242.7987170931922,-237.72604418180248 L 242.1949514456451,-242.68945702407564 A 277.170577208485 277.170577208485 0 0 0 7.937947238378159,-39.284080664319035 Z M 298.59653225538904,-243.76732272400886 L 298.1828453764488,-238.78446579588092 A 272.170577208485 272.170577208485 0 0 1 535.6773746439205,-47.983083639721286 L 532.8113792311256,-47.096477586370376 L 541.3165930168695,-38.213272170599 L 543.3200290780403,-50.347366448657034 L 540.4540336652453,-49.460760395306124 A 277.170577208485 277.170577208485 0 0 0 298.59653225538904,-243.76732272400886"/><text text-anchor="middle" pointer-events="none" font-size="8px" fill="#000000" x="270.4160162243386" y="-239.16749079029546" transform="rotate(180 270.4160162243386 -242.16749079029546)" font-family="sans-serif">IS_CHILD_OF</text></g><g class="relationship" transform="translate(302.83604796766855 -70.12299173303302) rotate(359.97245162259424)"><path class="outline" fill="#DA7194" stroke="none" d="M 7.937947238378159,39.284080664319035 L 12.7675763698235,37.98998543880643 A 130.7802041747615 130.7802041747615 0 0 0 107.06528266577922,130.93976320562516 L 105.84085154159291,135.78752231908408 A 135.7802041747615 135.7802041747615 0 0 1 7.937947238378159,39.284080664319035 Z M 162.43310991701847,137.90044888427252 L 161.573575314412,132.97488289984778 A 130.7802041747615 130.7802041747615 0 0 0 262.53982793354976,47.3154734247221 L 259.7080169061177,46.32509657477358 L 268.5310522395544,37.757480365761495 L 270.09132400670205,49.956478357918144 L 267.25951297926997,48.966101507969626 A 135.7802041747615 135.7802041747615 0 0 1 162.43310991701847,137.90044888427252"/><text text-anchor="middle" pointer-events="none" font-size="8px" fill="#000000" x="134.11887282863538" y="140.32898447019332" font-family="sans-serif">IS_CHILD_OF</text></g><g class="relationship" transform="translate(584.5720923075914 -70.25845321976584) rotate(539.9724516225942)"><path class="outline" fill="#DA7194" stroke="none" d="M 26.516504294495533,-30.05203820042827 L 30.05203820042827,-26.516504294495533 A 154.20516087567617 154.20516087567617 0 0 1 107.61902464281431,-68.43629376240676 L 106.59854879336655,-73.33104902091497 A 159.20516087567617 159.20516087567617 0 0 0 26.516504294495533,-30.05203820042827 Z M 163.16928334021208,-74.8508949279298 L 162.41309773485244,-69.90840736292299 A 154.20516087567617 154.20516087567617 0 0 1 242.11902361356206,-32.21395797571309 L 240.11466520145203,-29.98179593952402 L 251.9739164230137,-26.72477882813386 L 247.46397937918883,-38.16639007221728 L 245.4596209670788,-35.93422803602821 A 159.20516087567617 159.20516087567617 0 0 0 163.16928334021208,-74.8508949279298"/><text text-anchor="middle" pointer-events="none" font-size="8px" fill="#000000" x="134.88298503870288" y="-71.12562610777215" transform="rotate(180 134.88298503870288 -74.12562610777215)" font-family="sans-serif">IS_CHILD_OF</text></g><g class="relationship" transform="translate(302.83604796766855 -70.12299173303302) rotate(494.3637236639576)"><path class="outline" fill="#DA7194" stroke="none" d="M 12.767576369823502 37.98998543880643 L 23.120338173924335 76.62701849036915 A 23.935935394489817 23.935935394489817 0 1 1 -23.120338173924335 76.62701849036915 L -15.614585865951227 48.61516952798618 L -7.887179255638683 50.68572188880635 L -10.352761804100831 38.63703305156273 L -18.512363344818432 47.83871239267862 L -10.784956734505888 49.90926475349878 L -18.29070904247899 77.92111371588176 A 18.935935394489817 18.935935394489817 0 1 0 18.29070904247899 77.92111371588176 L 7.93794723837816 39.28408066431903 Z"/><text text-anchor="middle" pointer-events="none" font-size="8px" fill="#000000" x="0" y="115.75802982729645" transform="rotate(180 0 112.75802982729645)" font-family="sans-serif">IS_CHILD_OF</text></g><g class="relationship" transform="translate(584.5720923075914 -70.25845321976584) rotate(522.8909115896847)"><path class="outline" fill="#DA7194" stroke="none" d="M 12.767576369823502 37.98998543880643 L 23.120338173924335 76.62701849036915 A 23.935935394489817 23.935935394489817 0 1 1 -23.120338173924335 76.62701849036915 L -15.614585865951227 48.61516952798618 L -7.887179255638683 50.68572188880635 L -10.352761804100831 38.63703305156273 L -18.512363344818432 47.83871239267862 L -10.784956734505888 49.90926475349878 L -18.29070904247899 77.92111371588176 A 18.935935394489817 18.935935394489817 0 1 0 18.29070904247899 77.92111371588176 L 7.93794723837816 39.28408066431903 Z"/><text text-anchor="middle" pointer-events="none" font-size="8px" fill="#000000" x="0" y="115.75802982729645" transform="rotate(180 0 112.75802982729645)" font-family="sans-serif">IS_CHILD_OF</text></g><g class="relationship" transform="translate(31.44935943847372 -66.14782803371952) rotate(473.66657088790413)"><path class="outline" fill="#DA7194" stroke="none" d="M 12.767576369823502 37.98998543880643 L 23.120338173924335 76.62701849036915 A 23.935935394489817 23.935935394489817 0 1 1 -23.120338173924335 76.62701849036915 L -15.614585865951227 48.61516952798618 L -7.887179255638683 50.68572188880635 L -10.352761804100831 38.63703305156273 L -18.512363344818432 47.83871239267862 L -10.784956734505888 49.90926475349878 L -18.29070904247899 77.92111371588176 A 18.935935394489817 18.935935394489817 0 1 0 18.29070904247899 77.92111371588176 L 7.93794723837816 39.28408066431903 Z"/><text text-anchor="middle" pointer-events="none" font-size="8px" fill="#000000" x="0" y="115.75802982729645" transform="rotate(180 0 112.75802982729645)" font-family="sans-serif">IS_CHILD_OF</text></g><g class="relationship" transform="translate(302.83604796766855 -70.12299173303302) rotate(539.1608143444121)"><path class="outline" fill="#DA7194" stroke="none" d="M 7.937947238378159,39.284080664319035 L 12.7675763698235,37.98998543880643 A 125.36810419301679 125.36810419301679 0 0 0 101.91324896928792,126.77071037419917 L 100.63897680735596,131.6056075248452 A 130.3681041930168 130.3681041930168 0 0 1 7.937947238378159,39.284080664319035 Z M 157.23620510346205,133.79823426155775 L 156.33980719826198,128.8792434305485 A 125.36810419301679 125.36810419301679 0 0 0 252.0868701736662,47.26142677971704 L 249.2578490698081,46.26310839667211 L 258.1048884980461,37.720281384774765 L 259.63092645062113,49.923609134503536 L 256.801905346763,48.925290751458604 A 130.3681041930168 130.3681041930168 0 0 1 157.23620510346205,133.79823426155775"/><text text-anchor="middle" pointer-events="none" font-size="8px" fill="#000000" x="128.9138556630106" y="136.314588676575" transform="rotate(180 128.9138556630106 133.314588676575)" font-family="sans-serif">IS_CHILD_OF</text></g><g class="relationship" transform="translate(31.44935943847372 -66.14782803371952) rotate(359.1608143444121)"><path class="outline" fill="#DA7194" stroke="none" d="M 26.516504294495533,-30.05203820042827 L 30.05203820042827,-26.516504294495533 A 146.81209481279407 146.81209481279407 0 0 1 102.4875449096991,-66.12475060310169 L 101.4189571638098,-71.0092280807174 A 151.81209481279407 151.81209481279407 0 0 0 26.516504294495533,-30.05203820042827 Z M 158.00150904168908,-72.58558361503484 L 157.20652485190178,-67.64918815498626 A 146.81209481279407 146.81209481279407 0 0 1 231.73488955339423,-32.1352660568376 L 229.73496528948183,-29.89913034123031 L 241.6006573972146,-26.66565685216498 L 237.06802092382722,-38.09829463179039 L 235.06809665991483,-35.8621589161831 A 151.81209481279407 151.81209481279407 0 0 0 158.00150904168908,-72.58558361503484"/><text text-anchor="middle" pointer-events="none" font-size="8px" fill="#000000" x="129.70573505919987" y="-68.9588610379977" font-family="sans-serif">IS_CHILD_OF</text></g><g class="relationship" transform="translate(31.44935943847372 -66.14782803371952) rotate(359.5742045579734)"><path class="outline" fill="#DA7194" stroke="none" d="M 26.516504294495533,30.05203820042827 L 30.05203820042827,26.516504294495533 A 347.3480022903009 347.3480022903009 0 0 0 243.0958283045113,126.72215804445801 L 242.62701406731625,131.7001308458103 A 352.3480022903009 352.3480022903009 0 0 1 26.516504294495533,30.05203820042827 Z M 298.961578603699,132.48131722074243 L 298.63097629574264,127.492258981558 A 347.3480022903009 347.3480022903009 0 0 0 514.3714006650198,33.23251763704686 L 512.3097169958504,31.05319195044565 L 524.0803312401989,27.489115588926435 L 519.8692237828051,39.04405280131677 L 517.8075401136357,36.864727114715556 A 352.3480022903009 352.3480022903009 0 0 1 298.961578603699,132.48131722074243"/><text text-anchor="middle" pointer-events="none" font-size="8px" fill="#000000" x="270.81332141522154" y="133.71874723574666" font-family="sans-serif">IS_CHILD_OF</text></g><g class="relationship" transform="translate(-175.9153170486515 44.87637028957636) rotate(271.21584896053)"><path class="outline" fill="#C990C0" stroke="none" d="M 40 1.5 L 76.02586072895127 1.5 L 76.02586072895127 -1.5 L 40 -1.5 Z M 112.02586072895127 1.5 L 148.05172145790254 1.5 L 148.05172145790254 4.5 L 157.05172145790254 0 L 148.05172145790254 -4.5 L 148.05172145790254 -1.5 L 112.02586072895127 -1.5 Z"/><text text-anchor="middle" pointer-events="none" font-size="8px" fill="#000000" x="94.02586072895127" y="3" font-family="sans-serif">ACTION</text></g><g class="relationship" transform="translate(-175.9153170486515 44.87637028957636) rotate(507.34506886868485)"><path class="outline" fill="#D9C8AE" stroke="none" d="M 40 1.5 L 101.68149650460853 1.5 L 101.68149650460853 -1.5 L 40 -1.5 Z M 147.68149650460853 1.5 L 209.36299300921706 1.5 L 209.36299300921706 4.5 L 218.36299300921706 0 L 209.36299300921706 -4.5 L 209.36299300921706 -1.5 L 147.68149650460853 -1.5 Z"/><text text-anchor="middle" pointer-events="none" font-size="8px" fill="#000000" x="124.68149650460853" y="3" transform="rotate(180 124.68149650460853 0)" font-family="sans-serif">HAS_DATE</text></g><g class="relationship" transform="translate(302.83604796766855 -70.12299173303302) rotate(539.5666329835032)"><path class="outline" fill="#F79767" stroke="none" d="M 12.767576369823502 37.98998543880643 L 23.120338173924335 76.62701849036915 A 23.935935394489817 23.935935394489817 0 1 1 -23.120338173924335 76.62701849036915 L -15.614585865951227 48.61516952798618 L -7.887179255638683 50.68572188880635 L -10.352761804100831 38.63703305156273 L -18.512363344818432 47.83871239267862 L -10.784956734505888 49.90926475349878 L -18.29070904247899 77.92111371588176 A 18.935935394489817 18.935935394489817 0 1 0 18.29070904247899 77.92111371588176 L 7.93794723837816 39.28408066431903 Z"/><text text-anchor="middle" pointer-events="none" font-size="8px" fill="#000000" x="0" y="115.75802982729645" transform="rotate(180 0 112.75802982729645)" font-family="sans-serif">SPOUSE_OF</text></g><g class="relationship" transform="translate(584.5720923075914 -70.25845321976584) rotate(539.9724516225942)"><path class="outline" fill="#F79767" stroke="none" d="M 37.98998543880643,-12.7675763698235 L 39.284080664319035,-7.937947238378159 A 385.6264613206015 385.6264613206015 0 0 1 109.0376466086415,-19.904936691475086 L 108.64797020471917,-24.889728793481538 A 390.6264613206015 390.6264613206015 0 0 0 37.98998543880643,-12.7675763698235 Z M 161.94539277215816,-25.40873828075894 L 161.65286471933098,-20.417302882167746 A 385.6264613206015 385.6264613206015 0 0 1 231.62624930914183,-9.810972340180246 L 230.90637109454002,-6.898623570519968 L 242.904759976731,-9.598376194690573 L 233.54592454807994,-17.577235725940987 L 232.82604633347813,-14.66488695628071 A 390.6264613206015 390.6264613206015 0 0 0 161.94539277215816,-25.40873828075894"/><text text-anchor="middle" pointer-events="none" font-size="8px" fill="#000000" x="135.31216278713575" y="-20.559448882356207" transform="rotate(180 135.31216278713575 -23.559448882356207)" font-family="sans-serif">SPOUSE_OF</text></g><g class="relationship" transform="translate(31.44935943847372 -66.14782803371952) rotate(525.4979853734068)"><path class="outline" fill="#F79767" stroke="none" d="M 12.767576369823502 37.98998543880643 L 23.120338173924335 76.62701849036915 A 23.935935394489817 23.935935394489817 0 1 1 -23.120338173924335 76.62701849036915 L -15.614585865951227 48.61516952798618 L -7.887179255638683 50.68572188880635 L -10.352761804100831 38.63703305156273 L -18.512363344818432 47.83871239267862 L -10.784956734505888 49.90926475349878 L -18.29070904247899 77.92111371588176 A 18.935935394489817 18.935935394489817 0 1 0 18.29070904247899 77.92111371588176 L 7.93794723837816 39.28408066431903 Z"/><text text-anchor="middle" pointer-events="none" font-size="8px" fill="#000000" x="0" y="115.75802982729645" transform="rotate(180 0 112.75802982729645)" font-family="sans-serif">SPOUSE_OF</text></g><g class="relationship" transform="translate(31.44935943847372 -66.14782803371952) rotate(359.5742045579734)"><path class="outline" fill="#F79767" stroke="none" d="M 37.98998543880643,12.7675763698235 L 39.284080664319035,7.937947238378159 A 913.3025171835735 913.3025171835735 0 0 0 244.63033493852555,38.53056198470097 L 244.46043597006178,43.52767458504479 A 918.3025171835735 918.3025171835735 0 0 1 37.98998543880643,12.7675763698235 Z M 297.597024112012,43.79601486232173 L 297.4776034546028,38.797441195105876 A 913.3025171835735 913.3025171835735 0 0 0 503.1223623837936,10.280334988148523 L 502.375211712293,7.37486327531492 L 514.3983842237673,9.96200895334105 L 505.1147641744618,18.028259555704796 L 504.3676135029612,15.122787842871192 A 918.3025171835735 918.3025171835735 0 0 1 297.597024112012,43.79601486232173"/><text text-anchor="middle" pointer-events="none" font-size="8px" fill="#000000" x="271.0394135701032" y="44.54629841188739" font-family="sans-serif">SPOUSE_OF</text></g><g class="relationship" transform="translate(31.44935943847372 -66.14782803371952) rotate(359.1608143444121)"><path class="outline" fill="#F79767" stroke="none" d="M 37.98998543880643,-12.7675763698235 L 39.284080664319035,-7.937947238378159 A 365.42822921309505 365.42822921309505 0 0 1 103.88902307609051,-19.158169761512738 L 103.4788899701833,-24.141320455144125 A 370.42822921309505 370.42822921309505 0 0 0 37.98998543880643,-12.7675763698235 Z M 156.79017544477267,-24.679461166646433 L 156.4807186103041,-19.689046708146975 A 365.42822921309505 365.42822921309505 0 0 1 221.29899426571114,-9.775262437918343 L 220.58119152410657,-6.86240143468716 L 232.57765356222927,-9.570703221394252 L 223.21313490998998,-17.54289177986816 L 222.4953321683854,-14.630030776636978 A 370.42822921309505 370.42822921309505 0 0 0 156.79017544477267,-24.679461166646433"/><text text-anchor="middle" pointer-events="none" font-size="8px" fill="#000000" x="130.1500731240707" y="-19.870868586207166" font-family="sans-serif">SPOUSE_OF</text></g><g class="relationship" transform="translate(584.5720923075914 -70.25845321976584) rotate(539.5742045579734)"><path class="outline" fill="#F79767" stroke="none" d="M 37.98998543880643,12.7675763698235 L 39.284080664319035,7.937947238378159 A 913.3025171835735 913.3025171835735 0 0 0 244.63033493852555,38.53056198470097 L 244.46043597006178,43.52767458504479 A 918.3025171835735 918.3025171835735 0 0 1 37.98998543880643,12.7675763698235 Z M 297.597024112012,43.79601486232173 L 297.4776034546028,38.797441195105876 A 913.3025171835735 913.3025171835735 0 0 0 503.1223623837936,10.280334988148523 L 502.375211712293,7.37486327531492 L 514.3983842237673,9.96200895334105 L 505.1147641744618,18.028259555704796 L 504.3676135029612,15.122787842871192 A 918.3025171835735 918.3025171835735 0 0 1 297.597024112012,43.79601486232173"/><text text-anchor="middle" pointer-events="none" font-size="8px" fill="#000000" x="271.0394135701032" y="44.54629841188739" transform="rotate(180 271.0394135701032 41.54629841188739)" font-family="sans-serif">SPOUSE_OF</text></g><g class="relationship" transform="translate(302.83604796766855 -70.12299173303302) rotate(539.1608143444121)"><path class="outline" fill="#F79767" stroke="none" d="M 37.98998543880643,-12.7675763698235 L 39.284080664319035,-7.937947238378159 A 365.42822921309505 365.42822921309505 0 0 1 103.88902307609051,-19.158169761512738 L 103.4788899701833,-24.141320455144125 A 370.42822921309505 370.42822921309505 0 0 0 37.98998543880643,-12.7675763698235 Z M 156.79017544477267,-24.679461166646433 L 156.4807186103041,-19.689046708146975 A 365.42822921309505 365.42822921309505 0 0 1 221.29899426571114,-9.775262437918343 L 220.58119152410657,-6.86240143468716 L 232.57765356222927,-9.570703221394252 L 223.21313490998998,-17.54289177986816 L 222.4953321683854,-14.630030776636978 A 370.42822921309505 370.42822921309505 0 0 0 156.79017544477267,-24.679461166646433"/><text text-anchor="middle" pointer-events="none" font-size="8px" fill="#000000" x="130.1500731240707" y="-19.870868586207166" transform="rotate(180 130.1500731240707 -22.870868586207166)" font-family="sans-serif">SPOUSE_OF</text></g><g class="relationship" transform="translate(302.83604796766855 -70.12299173303302) rotate(359.97245162259424)"><path class="outline" fill="#F79767" stroke="none" d="M 37.98998543880643,-12.7675763698235 L 39.284080664319035,-7.937947238378159 A 385.6264613206015 385.6264613206015 0 0 1 109.0376466086415,-19.904936691475086 L 108.64797020471917,-24.889728793481538 A 390.6264613206015 390.6264613206015 0 0 0 37.98998543880643,-12.7675763698235 Z M 161.94539277215816,-25.40873828075894 L 161.65286471933098,-20.417302882167746 A 385.6264613206015 385.6264613206015 0 0 1 231.62624930914183,-9.810972340180246 L 230.90637109454002,-6.898623570519968 L 242.904759976731,-9.598376194690573 L 233.54592454807994,-17.577235725940987 L 232.82604633347813,-14.66488695628071 A 390.6264613206015 390.6264613206015 0 0 0 161.94539277215816,-25.40873828075894"/><text text-anchor="middle" pointer-events="none" font-size="8px" fill="#000000" x="135.31216278713575" y="-20.559448882356207" font-family="sans-serif">SPOUSE_OF</text></g><g class="relationship" transform="translate(584.5720923075914 -70.25845321976584) rotate(235.8093715567751)"><path class="outline" fill="#F79767" stroke="none" d="M 12.767576369823502 37.98998543880643 L 23.120338173924335 76.62701849036915 A 23.935935394489817 23.935935394489817 0 1 1 -23.120338173924335 76.62701849036915 L -15.614585865951227 48.61516952798618 L -7.887179255638683 50.68572188880635 L -10.352761804100831 38.63703305156273 L -18.512363344818432 47.83871239267862 L -10.784956734505888 49.90926475349878 L -18.29070904247899 77.92111371588176 A 18.935935394489817 18.935935394489817 0 1 0 18.29070904247899 77.92111371588176 L 7.93794723837816 39.28408066431903 Z"/><text text-anchor="middle" pointer-events="none" font-size="8px" fill="#000000" x="0" y="115.75802982729645" transform="rotate(180 0 112.75802982729645)" font-family="sans-serif">SPOUSE_OF</text></g><g class="relationship" transform="translate(-175.9153170486515 44.87637028957636) rotate(221.22345836268323)"><path class="outline" fill="#FFE081" stroke="none" d="M 40 1.5 L 63.645532703009195 1.5 L 63.645532703009195 -1.5 L 40 -1.5 Z M 132.6455327030092 1.5 L 156.2910654060184 1.5 L 156.2910654060184 4.5 L 165.2910654060184 0 L 156.2910654060184 -4.5 L 156.2910654060184 -1.5 L 132.6455327030092 -1.5 Z"/><text text-anchor="middle" pointer-events="none" font-size="8px" fill="#000000" x="98.1455327030092" y="3" transform="rotate(180 98.1455327030092 0)" font-family="sans-serif">CITED_RECORD</text></g><g class="relationship" transform="translate(-330.32399858659926 -90.40992096438163) rotate(220.3860986299415)"><path class="outline" fill="#FFE081" stroke="none" d="M 40 1.5 L 50.95800958743723 1.5 L 50.95800958743723 -1.5 L 40 -1.5 Z M 104.95800958743723 1.5 L 115.91601917487446 1.5 L 115.91601917487446 4.5 L 124.91601917487446 0 L 115.91601917487446 -4.5 L 115.91601917487446 -1.5 L 104.95800958743723 -1.5 Z"/><text text-anchor="middle" pointer-events="none" font-size="8px" fill="#000000" x="77.95800958743723" y="3" transform="rotate(180 77.95800958743723 0)" font-family="sans-serif">LITERATURE</text></g><g class="relationship" transform="translate(302.83604796766855 -70.12299173303302) rotate(526.4930605563435)"><path class="outline" fill="#A5ABB6" stroke="none" d="M 38.24880448390895,11.801650543534432 L 39.025261619216515,8.903873064667227 A 797.2600080459962 797.2600080459962 0 0 0 214.72326848417362,35.48054866557186 L 214.60794324470353,38.47833119423217 A 800.2600080459962 800.2600080459962 0 0 1 38.24880448390895,11.801650543534432 Z M 268.69846378936495,38.7297905006925 L 268.6110154802352,35.73106530600887 A 797.2600080459962 797.2600080459962 0 0 0 444.54852536738304,10.789094312842103 L 443.79904393940285,7.884222957839826 L 453.6378801463799,9.993085706402631 L 446.0474882233434,16.598837022846652 L 445.2980067953632,13.693965667844378 A 800.2600080459962 800.2600080459962 0 0 1 268.69846378936495,38.7297905006925"/><text text-anchor="middle" pointer-events="none" font-size="8px" fill="#000000" x="241.65805154908912" y="40.561217847706644" transform="rotate(180 241.65805154908912 37.561217847706644)" font-family="sans-serif">APPEARS_IN</text></g><g class="relationship" transform="translate(31.44935943847372 -66.14782803371952) rotate(511.83515640240154)"><path class="outline" fill="#A5ABB6" stroke="none" d="M 38.24880448390895,11.801650543534432 L 39.025261619216515,8.903873064667227 A 297.04134183614286 297.04134183614286 0 0 0 86.253638312211,17.541650136777605 L 85.95416909112159,20.52666574571839 A 300.04134183614286 300.04134183614286 0 0 1 38.24880448390895,11.801650543534432 Z M 140.1490631867125,21.044235651290194 L 139.90665814043658,18.05404505643844 A 297.04134183614286 297.04134183614286 0 0 0 187.2913898972278,10.319838300746309 L 186.57041781246605,7.407760133355483 L 196.38811044178112,9.612961130156508 L 188.73333406675127,16.14399463552796 L 188.01236198198953,13.231916468137136 A 300.04134183614286 300.04134183614286 0 0 1 140.1490631867125,21.044235651290194"/><text text-anchor="middle" pointer-events="none" font-size="8px" fill="#000000" x="113.05423052132396" y="23.511697962608082" transform="rotate(180 113.05423052132396 20.511697962608082)" font-family="sans-serif">APPEARS_IN</text></g><g class="relationship" transform="translate(166.74230015409017 279.7314093395887) rotate(214.42645590670423)"><path class="outline" fill="#A5ABB6" stroke="none" d="M 38.24880448390895,11.801650543534432 L 39.025261619216515,8.903873064667227 A 648.016667304324 648.016667304324 0 0 0 176.25881298395333,30.267023456716856 L 176.11768002295574,33.26370186577583 A 651.016667304324 651.016667304324 0 0 1 38.24880448390895,11.801650543534432 Z M 230.2259853414807,33.56088489557703 L 230.11777765713398,30.562837014530373 A 648.016667304324 648.016667304324 0 0 0 367.5777113801308,10.70840587887719 L 366.8331314819575,7.802274296302824 L 376.66839607694055,9.927731975644386 L 369.06687117647743,16.520669044025926 L 368.32229127830414,13.614537461451558 A 651.016667304324 651.016667304324 0 0 1 230.2259853414807,33.56088489557703"/><text text-anchor="middle" pointer-events="none" font-size="8px" fill="#000000" x="203.1769822456197" y="35.474709061099816" transform="rotate(180 203.1769822456197 32.474709061099816)" font-family="sans-serif">APPEARS_IN</text></g><g class="relationship" transform="translate(584.5720923075914 -70.25845321976584) rotate(531.391020326482)"><path class="outline" fill="#A5ABB6" stroke="none" d="M 38.24880448390895,11.801650543534432 L 39.025261619216515,8.903873064667227 A 1333.0966147147071 1333.0966147147071 0 0 0 353.09705149045476,53.96850393248155 L 353.0273813645909,56.96769483563571 A 1336.0966147147071 1336.0966147147071 0 0 1 38.24880448390895,11.801650543534432 Z M 407.0841438306216,57.129575387621344 L 407.0324377883161,54.1300210065192 A 1333.0966147147071 1333.0966147147071 0 0 0 721.3684968869336,10.947245522242026 L 720.6094091238384,8.044869638949315 L 730.4551684183593,10.1211701746028 L 722.8866724131241,16.751997288827447 L 722.1275846500289,13.849621405534736 A 1336.0966147147071 1336.0966147147071 0 0 1 407.0841438306216,57.129575387621344"/><text text-anchor="middle" pointer-events="none" font-size="8px" fill="#000000" x="380.05943576521776" y="58.82205448388345" transform="rotate(180 380.05943576521776 55.82205448388345)" font-family="sans-serif">APPEARS_IN</text></g><g class="relationship" transform="translate(449.09969757213366 271.099721569458) rotate(199.89765554878727)"><path class="outline" fill="#A5ABB6" stroke="none" d="M 38.24880448390895,11.801650543534432 L 39.025261619216515,8.903873064667227 A 1130.9840335182646 1130.9840335182646 0 0 0 300.87281077695735,47.01977292941865 L 300.7909192802376,50.01865501825864 A 1133.9840335182646 1133.9840335182646 0 0 1 38.24880448390895,11.801650543534432 Z M 354.8569976543726,50.20567903367305 L 354.7958551838334,47.20630216533914 A 1130.9840335182646 1130.9840335182646 0 0 0 616.9008339031072,10.90284567722892 L 616.1444429473072,7.9997658088849795 L 625.9882689860391,10.085212744000707 L 618.4136158147073,16.7090054139168 L 617.6572248589073,13.80592554557286 A 1133.9840335182646 1133.9840335182646 0 0 1 354.8569976543726,50.20567903367305"/><text text-anchor="middle" pointer-events="none" font-size="8px" fill="#000000" x="327.8280324172536" y="51.934443958042266" transform="rotate(180 327.8280324172536 48.934443958042266)" font-family="sans-serif">APPEARS_IN</text></g><g class="relationship" transform="translate(-181.16599335736748 273.8424454178469) rotate(271.3136831420504)"><path class="outline" fill="#A5ABB6" stroke="none" d="M 38.24880448390895,11.801650543534432 L 39.025261619216515,8.903873064667227 A 284.9062616651806 284.9062616651806 0 0 0 83.16767285455421,17.07035707945795 L 82.85602555856721,20.054125831037766 A 287.9062616651806 287.9062616651806 0 0 1 38.24880448390895,11.801650543534432 Z M 137.0558710842259,20.5852203143628 L 136.802752835912,17.59591752736202 A 284.9062616651806 284.9062616651806 0 0 0 181.09671648816362,10.296005554844573 L 180.37719258705673,7.383569228375625 L 190.1937874181239,9.593652014758405 L 182.5357642903774,16.120878207782468 L 181.8162403892705,13.208441881313519 A 287.9062616651806 287.9062616651806 0 0 1 137.0558710842259,20.5852203143628"/><text text-anchor="middle" pointer-events="none" font-size="8px" fill="#000000" x="109.95811977382685" y="23.098069591618753" font-family="sans-serif">APPEARS_IN</text></g><g class="relationship" transform="translate(-175.9153170486515 44.87637028957636) rotate(181.62843277178666)"><path class="outline" fill="#8DCC93" stroke="none" d="M 40 1.5 L 92.08300246763685 1.5 L 92.08300246763685 -1.5 L 40 -1.5 Z M 165.08300246763685 1.5 L 217.1660049352737 1.5 L 217.1660049352737 4.5 L 226.1660049352737 0 L 217.1660049352737 -4.5 L 217.1660049352737 -1.5 L 165.08300246763685 -1.5 Z"/><text text-anchor="middle" pointer-events="none" font-size="8px" fill="#000000" x="128.58300246763685" y="3" transform="rotate(180 128.58300246763685 0)" font-family="sans-serif">PLACE_OF_ISSUE</text></g><g class="relationship" transform="translate(31.44935943847372 -66.14782803371952) rotate(217.32939985890943)"><path class="outline" fill="#FFE081" stroke="none" d="M 11.3186876303899 38.37821400646021 L 21.671449434490732 77.01524705802294 A 22.435935394489817 22.435935394489817 0 1 1 -21.671449434490732 77.01524705802294 L -13.389239991210065 46.105620616772754 L -8.559610859764723 47.39971584228536 L -10.352761804100831 38.63703305156273 L -16.287017470077267 45.329163481465194 L -11.457388338631928 46.62325870697779 L -19.739597781912593 77.53288514822798 A 20.435935394489817 20.435935394489817 0 1 0 19.739597781912593 77.53288514822798 L 9.386835977811764 38.89585209666525 Z"/><text text-anchor="middle" pointer-events="none" font-size="8px" fill="#000000" x="0" y="114.25802982729645" transform="rotate(180 0 111.25802982729645)" font-family="sans-serif">IS_SUB_OF</text></g><g class="relationship" transform="translate(584.5720923075914 -70.25845321976584) rotate(308.72783152386546)"><path class="outline" fill="#FFE081" stroke="none" d="M 11.3186876303899 38.37821400646021 L 21.671449434490732 77.01524705802294 A 22.435935394489817 22.435935394489817 0 1 1 -21.671449434490732 77.01524705802294 L -13.389239991210065 46.105620616772754 L -8.559610859764723 47.39971584228536 L -10.352761804100831 38.63703305156273 L -16.287017470077267 45.329163481465194 L -11.457388338631928 46.62325870697779 L -19.739597781912593 77.53288514822798 A 20.435935394489817 20.435935394489817 0 1 0 19.739597781912593 77.53288514822798 L 9.386835977811764 38.89585209666525 Z"/><text text-anchor="middle" pointer-events="none" font-size="8px" fill="#000000" x="0" y="114.25802982729645" font-family="sans-serif">IS_SUB_OF</text></g><g class="relationship" transform="translate(-181.16599335736748 273.8424454178469) rotate(360.9697399158921)"><path class="outline" fill="#FFE081" stroke="none" d="M 38.37821400646021,-11.318687630389897 L 38.89585209666525,-9.386835977811762 A 518.0128732090926 518.0128732090926 0 0 1 146.01039832013313,-26.335807439618634 L 145.9063196287897,-28.33309751019135 A 520.0128732090926 520.0128732090926 0 0 0 38.37821400646021,-11.318687630389897 Z M 193.9808508951709,-28.612953798456488 L 193.90003212053543,-26.614587384190486 A 518.0128732090926 518.0128732090926 0 0 1 301.20464231543207,-10.913814244186984 L 300.4619743259502,-8.007193481617684 L 309.20318701211085,-9.902239859758401 L 302.4424222979019,-15.758182181802486 L 301.69975430842004,-12.851561419233185 A 520.0128732090926 520.0128732090926 0 0 0 193.9808508951709,-28.612953798456488"/><text text-anchor="middle" pointer-events="none" font-size="8px" fill="#000000" x="169.94617063457102" y="-25.028902793204338" font-family="sans-serif">IS_SUB_OF</text></g><g class="relationship" transform="translate(302.83604796766855 -70.12299173303302) rotate(504.5997569630882)"><path class="outline" fill="#FFE081" stroke="none" d="M 38.37821400646021,11.318687630389897 L 38.89585209666525,9.386835977811762 A 994.515072304869 994.515072304869 0 0 0 268.8994677545614,42.89670840933752 L 268.84437391745615,44.89594943260431 A 996.515072304869 996.515072304869 0 0 1 38.37821400646021,11.318687630389897 Z M 316.8876513748125,45.06132852155008 L 316.8463226312813,43.06175558340601 A 994.515072304869 994.515072304869 0 0 0 547.0751864858606,11.136138685500793 L 546.3186975194723,8.233084355362848 L 555.0688276883579,10.086519551844487 L 548.3360014298413,15.974562569064034 L 547.5795124634529,13.07150823892609 A 996.515072304869 996.515072304869 0 0 1 316.8876513748125,45.06132852155008"/><text text-anchor="middle" pointer-events="none" font-size="8px" fill="#000000" x="292.8684581266659" y="47.268217239687715" transform="rotate(180 292.8684581266659 44.268217239687715)" font-family="sans-serif">IS_SUB_OF</text></g><g class="relationship" transform="translate(302.83604796766855 -70.12299173303302) rotate(359.97245162259424)"><path class="outline" fill="#FFE081" stroke="none" d="M 27.577164466275356,-28.991378028648448 L 28.991378028648448,-27.577164466275356 A 156.450577353108 156.450577353108 0 0 1 112.82473666743589,-71.08902505574409 L 112.48221437085564,-73.05947639397738 A 158.450577353108 158.450577353108 0 0 0 27.577164466275356,-28.991378028648448 Z M 160.5909137446775,-74.00641652711366 L 160.32619686071993,-72.02401269051836 A 156.450577353108 156.450577353108 0 0 1 245.80687540984266,-31.84481872898584 L 243.77067519228908,-29.64166447337079 L 252.36068683066733,-27.149336234047944 L 249.20054243909865,-35.516742488344256 L 247.16434222154507,-33.3135882327292 A 158.450577353108 158.450577353108 0 0 0 160.5909137446775,-74.00641652711366"/><text text-anchor="middle" pointer-events="none" font-size="8px" fill="#000000" x="136.52008832646135" y="-71.36998565298188" font-family="sans-serif">IS_SUB_OF</text></g><g class="relationship" transform="translate(31.44935943847372 -66.14782803371952) rotate(359.5742045579734)"><path class="outline" fill="#FFE081" stroke="none" d="M 27.577164466275356,-28.991378028648448 L 28.991378028648448,-27.577164466275356 A 349.2276737490222 349.2276737490222 0 0 1 248.4942499843052,-128.7840134135816 L 248.3371124697679,-130.77783080780932 A 351.2276737490222 351.2276737490222 0 0 0 27.577164466275356,-28.991378028648448 Z M 296.4340358598688,-131.2647309285955 L 296.3172944805438,-129.26814097310807 A 349.2276737490222 349.2276737490222 0 0 1 517.8240679822961,-32.525769886459884 L 515.7461275567482,-30.361939119538903 L 524.2869301692681,-27.705872340639157 L 521.287302024876,-36.13215449799485 L 519.2093615993281,-33.968323731073866 A 351.2276737490222 351.2276737490222 0 0 0 296.4340358598688,-131.2647309285955"/><text text-anchor="middle" pointer-events="none" font-size="8px" fill="#000000" x="272.3873522583751" y="-127.84563739241145" font-family="sans-serif">IS_SUB_OF</text></g><g class="relationship" transform="translate(31.44935943847372 -66.14782803371952) rotate(482.02009647584146)"><path class="outline" fill="#FFE081" stroke="none" d="M 38.37821400646021,-11.318687630389897 L 38.89585209666525,-9.386835977811762 A 620.9932737129626 620.9932737129626 0 0 1 172.52207647631988,-29.955126511593335 L 172.43480125810117,-31.953221363267062 A 622.9932737129626 622.9932737129626 0 0 0 38.37821400646021,-11.318687630389897 Z M 220.4994267023795,-32.19671134747989 L 220.43239969143346,-30.197834818075535 A 620.9932737129626 620.9932737129626 0 0 1 354.2601536328384,-10.984436044234469 L 353.5130952251325,-8.078940607054108 L 362.2571609345547,-9.960778769412157 L 355.50525097901493,-15.826928439535074 L 354.758192571309,-12.921433002354712 A 622.9932737129626 622.9932737129626 0 0 0 220.4994267023795,-32.19671134747989"/><text text-anchor="middle" pointer-events="none" font-size="8px" fill="#000000" x="196.4698307078728" y="-28.538687639390332" transform="rotate(180 196.4698307078728 -31.538687639390332)" font-family="sans-serif">IS_SUB_OF</text></g><g class="relationship" transform="translate(166.74230015409017 279.7314093395887) rotate(358.2490088446755)"><path class="outline" fill="#FFE081" stroke="none" d="M 38.37821400646021,11.318687630389897 L 38.89585209666525,9.386835977811762 A 390.6309681542797 390.6309681542797 0 0 0 113.29380219380775,21.783382147219015 L 113.15707578835043,23.778703146469695 A 392.6309681542797 392.6309681542797 0 0 1 38.37821400646021,11.318687630389897 Z M 161.2483011114388,24.121810200861717 L 161.1400584277325,22.124741468588297 A 390.6309681542797 390.6309681542797 0 0 0 235.70731244858834,10.790988190159897 L 234.9722806616388,7.882426987060719 L 243.70848625250267,9.800423825994123 L 236.9323654268376,15.638590195325193 L 236.19733363988806,12.730028992226014 A 392.6309681542797 392.6309681542797 0 0 1 161.2483011114388,24.121810200861717"/><text text-anchor="middle" pointer-events="none" font-size="8px" fill="#000000" x="137.2045645397424" y="26.687296590388883" font-family="sans-serif">IS_SUB_OF</text></g><g class="relationship" transform="translate(31.44935943847372 -66.14782803371952) rotate(359.1608143444121)"><path class="outline" fill="#FFE081" stroke="none" d="M 27.577164466275356,28.991378028648448 L 28.991378028648448,27.577164466275356 A 149.08585490267123 149.08585490267123 0 0 0 107.67297091770632,68.82611775923095 L 107.31427792018393,70.79368969782135 A 151.08585490267123 151.08585490267123 0 0 1 27.577164466275356,28.991378028648448 Z M 155.4184045813657,71.77580766897745 L 155.14031888518218,69.79523493727123 A 149.08585490267123 149.08585490267123 0 0 0 235.43996169285654,31.792122271546823 L 233.40699287600617,29.585985877369424 L 242.00064834961304,27.106250891338323 L 238.82824305427383,35.469016261842484 L 236.79527423742346,33.262879867665085 A 151.08585490267123 151.08585490267123 0 0 1 155.4184045813657,71.77580766897745"/><text text-anchor="middle" pointer-events="none" font-size="8px" fill="#000000" x="131.3474073737827" y="75.21212975549679" font-family="sans-serif">IS_SUB_OF</text></g><g class="relationship" transform="translate(449.09969757213366 271.099721569458) rotate(246.79781435624665)"><path class="outline" fill="#FFE081" stroke="none" d="M 38.37821400646021,-11.318687630389897 L 38.89585209666525,-9.386835977811762 A 563.253047210349 563.253047210349 0 0 1 157.65205872566318,-27.93054036896376 L 157.55610040165618,-29.928237042649243 A 565.253047210349 565.253047210349 0 0 0 38.37821400646021,-11.318687630389897 Z M 205.62595363355814,-30.19086839479371 L 205.55182936015453,-28.192242468790482 A 563.253047210349 563.253047210349 0 0 1 324.50356873093267,-10.947263891762667 L 323.75882122447854,-8.041175257252295 L 332.5013875917784,-9.929966752721768 L 325.74481457502293,-15.79074494927995 L 325.0000670685688,-12.884656314769579 A 565.253047210349 565.253047210349 0 0 0 205.62595363355814,-30.19086839479371"/><text text-anchor="middle" pointer-events="none" font-size="8px" fill="#000000" x="181.59369735293913" y="-26.570796801197844" transform="rotate(180 181.59369735293913 -29.570796801197844)" font-family="sans-serif">IS_SUB_OF</text></g><g class="relationship" transform="translate(302.83604796766855 -70.12299173303302) rotate(539.1608143444121)"><path class="outline" fill="#FFE081" stroke="none" d="M 9.386835977811762,-38.89585209666525 L 11.318687630389897,-38.37821400646021 A 127.43453589167717 127.43453589167717 0 0 1 107.2090616908163,-129.89318150893234 L 106.78214546864513,-131.84708594345494 A 129.43453589167717 129.43453589167717 0 0 0 9.386835977811762,-38.89585209666525 Z M 154.85565665840852,-133.20541174133322 L 154.53974932334924,-131.23051869216428 A 127.43453589167717 127.43453589167717 0 0 1 255.4445549957336,-45.27603476814234 L 252.59524361072656,-44.33719259223135 L 258.89790459316526,-37.99081846676058 L 260.1934073040787,-46.840771727993996 L 257.3440959190716,-45.901929552083004 A 129.43453589167717 129.43453589167717 0 0 0 154.85565665840852,-133.20541174133322"/><text text-anchor="middle" pointer-events="none" font-size="8px" fill="#000000" x="130.78350357518957" y="-130.77902748675746" transform="rotate(180 130.78350357518957 -133.77902748675746)" font-family="sans-serif">IS_SUB_OF</text></g><g class="relationship" transform="translate(302.83604796766855 -70.12299173303302) rotate(224.7695423030487)"><path class="outline" fill="#FFE081" stroke="none" d="M 11.3186876303899 38.37821400646021 L 21.671449434490732 77.01524705802294 A 22.435935394489817 22.435935394489817 0 1 1 -21.671449434490732 77.01524705802294 L -13.389239991210065 46.105620616772754 L -8.559610859764723 47.39971584228536 L -10.352761804100831 38.63703305156273 L -16.287017470077267 45.329163481465194 L -11.457388338631928 46.62325870697779 L -19.739597781912593 77.53288514822798 A 20.435935394489817 20.435935394489817 0 1 0 19.739597781912593 77.53288514822798 L 9.386835977811764 38.89585209666525 Z"/><text text-anchor="middle" pointer-events="none" font-size="8px" fill="#000000" x="0" y="114.25802982729645" transform="rotate(180 0 111.25802982729645)" font-family="sans-serif">IS_SUB_OF</text></g><g class="relationship" transform="translate(-181.16599335736748 273.8424454178469) rotate(302.02009647584146)"><path class="outline" fill="#FFE081" stroke="none" d="M 38.37821400646021,-11.318687630389897 L 38.89585209666525,-9.386835977811762 A 620.9932737129626 620.9932737129626 0 0 1 172.52207647631988,-29.955126511593335 L 172.43480125810117,-31.953221363267062 A 622.9932737129626 622.9932737129626 0 0 0 38.37821400646021,-11.318687630389897 Z M 220.4994267023795,-32.19671134747989 L 220.43239969143346,-30.197834818075535 A 620.9932737129626 620.9932737129626 0 0 1 354.2601536328384,-10.984436044234469 L 353.5130952251325,-8.078940607054108 L 362.2571609345547,-9.960778769412157 L 355.50525097901493,-15.826928439535074 L 354.758192571309,-12.921433002354712 A 622.9932737129626 622.9932737129626 0 0 0 220.4994267023795,-32.19671134747989"/><text text-anchor="middle" pointer-events="none" font-size="8px" fill="#000000" x="196.4698307078728" y="-28.538687639390332" font-family="sans-serif">IS_SUB_OF</text></g><g class="relationship" transform="translate(-181.16599335736748 273.8424454178469) rotate(406.14171152897126)"><path class="outline" fill="#FFE081" stroke="none" d="M 11.3186876303899 38.37821400646021 L 21.671449434490732 77.01524705802294 A 22.435935394489817 22.435935394489817 0 1 1 -21.671449434490732 77.01524705802294 L -13.389239991210065 46.105620616772754 L -8.559610859764723 47.39971584228536 L -10.352761804100831 38.63703305156273 L -16.287017470077267 45.329163481465194 L -11.457388338631928 46.62325870697779 L -19.739597781912593 77.53288514822798 A 20.435935394489817 20.435935394489817 0 1 0 19.739597781912593 77.53288514822798 L 9.386835977811764 38.89585209666525 Z"/><text text-anchor="middle" pointer-events="none" font-size="8px" fill="#000000" x="0" y="114.25802982729645" font-family="sans-serif">IS_SUB_OF</text></g><g class="relationship" transform="translate(31.44935943847372 -66.14782803371952) rotate(398.9204513268857)"><path class="outline" fill="#FFE081" stroke="none" d="M 38.37821400646021,-11.318687630389897 L 38.89585209666525,-9.386835977811762 A 884.2266643107283 884.2266643107283 0 0 1 240.41986150855953,-39.09364383166155 L 240.3580432155758,-41.092688228030056 A 886.2266643107283 886.2266643107283 0 0 0 38.37821400646021,-11.318687630389897 Z M 288.4060324939591,-41.27538534012626 L 288.3594180547462,-39.27592864040582 A 884.2266643107283 884.2266643107283 0 0 1 490.10351059021946,-11.102502697699059 L 489.3491125385984,-8.198904312985642 L 498.09790563332893,-10.058640688280732 L 491.36084067625455,-15.941833338888086 L 490.6064426246335,-13.03823495417467 A 886.2266643107283 886.2266643107283 0 0 0 288.4060324939591,-41.27538534012626"/><text text-anchor="middle" pointer-events="none" font-size="8px" fill="#000000" x="264.38460183238374" y="-37.50972963382594" font-family="sans-serif">IS_SUB_OF</text></g><g class="relationship" transform="translate(584.5720923075914 -70.25845321976584) rotate(471.646291490956)"><path class="outline" fill="#FFE081" stroke="none" d="M 38.37821400646021,-11.318687630389897 L 38.89585209666525,-9.386835977811762 A 555.5020574748879 555.5020574748879 0 0 1 155.65686811321024,-27.657901491861026 L 155.5596101618198,-29.65553531488547 A 557.5020574748879 557.5020574748879 0 0 0 38.37821400646021,-11.318687630389897 Z M 203.63022587473677,-29.92096650495057 L 203.55503382323164,-27.922380465924448 A 555.5020574748879 555.5020574748879 0 0 1 320.51069846462497,-10.941826749261164 L 319.7662889753439,-8.03565151155297 L 328.50863559494053,-9.925459857081014 L 321.7513809467601,-15.78545214544149 L 321.00697145747904,-12.879276907733296 A 557.5020574748879 557.5020574748879 0 0 0 203.63022587473677,-29.92096650495057"/><text text-anchor="middle" pointer-events="none" font-size="8px" fill="#000000" x="179.59757740240607" y="-26.306626152826766" transform="rotate(180 179.59757740240607 -29.306626152826766)" font-family="sans-serif">IS_SUB_OF</text></g><g class="relationship" transform="translate(302.83604796766855 -70.12299173303302) rotate(426.79781435624665)"><path class="outline" fill="#FFE081" stroke="none" d="M 38.37821400646021,-11.318687630389897 L 38.89585209666525,-9.386835977811762 A 563.253047210349 563.253047210349 0 0 1 157.65205872566318,-27.93054036896376 L 157.55610040165618,-29.928237042649243 A 565.253047210349 565.253047210349 0 0 0 38.37821400646021,-11.318687630389897 Z M 205.62595363355814,-30.19086839479371 L 205.55182936015453,-28.192242468790482 A 563.253047210349 563.253047210349 0 0 1 324.50356873093267,-10.947263891762667 L 323.75882122447854,-8.041175257252295 L 332.5013875917784,-9.929966752721768 L 325.74481457502293,-15.79074494927995 L 325.0000670685688,-12.884656314769579 A 565.253047210349 565.253047210349 0 0 0 205.62595363355814,-30.19086839479371"/><text text-anchor="middle" pointer-events="none" font-size="8px" fill="#000000" x="181.59369735293913" y="-26.570796801197844" font-family="sans-serif">IS_SUB_OF</text></g><g class="relationship" transform="translate(584.5720923075914 -70.25845321976584) rotate(500.0491991969209)"><path class="outline" fill="#FFE081" stroke="none" d="M 38.37821400646021,-11.318687630389897 L 38.89585209666525,-9.386835977811762 A 900.1698445125653 900.1698445125653 0 0 1 244.53598879528568,-39.64406870782341 L 244.47524256377199,-41.643145968800695 A 902.1698445125653 902.1698445125653 0 0 0 38.37821400646021,-11.318687630389897 Z M 292.5224893727776,-41.82311921311441 L 292.4767207454734,-39.82364297350705 A 900.1698445125653 900.1698445125653 0 0 1 498.33775619925643,-11.107793067895733 L 497.58302928001024,-8.204280147765163 L 506.33203295935334,-10.063025589949405 L 499.59563439800013,-15.94698126811335 L 498.84090747875393,-13.04346834798278 A 902.1698445125653 902.1698445125653 0 0 0 292.5224893727776,-41.82311921311441"/><text text-anchor="middle" pointer-events="none" font-size="8px" fill="#000000" x="268.50141336268655" y="-38.05305768044843" transform="rotate(180 268.50141336268655 -41.05305768044843)" font-family="sans-serif">IS_SUB_OF</text></g><g class="relationship" transform="translate(166.74230015409017 279.7314093395887) rotate(359.6093743802838)"><path class="outline" fill="#FFE081" stroke="none" d="M 11.3186876303899 38.37821400646021 L 21.671449434490732 77.01524705802294 A 22.435935394489817 22.435935394489817 0 1 1 -21.671449434490732 77.01524705802294 L -13.389239991210065 46.105620616772754 L -8.559610859764723 47.39971584228536 L -10.352761804100831 38.63703305156273 L -16.287017470077267 45.329163481465194 L -11.457388338631928 46.62325870697779 L -19.739597781912593 77.53288514822798 A 20.435935394489817 20.435935394489817 0 1 0 19.739597781912593 77.53288514822798 L 9.386835977811764 38.89585209666525 Z"/><text text-anchor="middle" pointer-events="none" font-size="8px" fill="#000000" x="0" y="114.25802982729645" font-family="sans-serif">IS_SUB_OF</text></g><g class="relationship" transform="translate(449.09969757213366 271.099721569458) rotate(539.7506678355154)"><path class="outline" fill="#FFE081" stroke="none" d="M 38.37821400646021,-11.318687630389897 L 38.89585209666525,-9.386835977811762 A 1065.1514759401325 1065.1514759401325 0 0 1 287.1460699150479,-45.32770959983657 L 287.0945631187028,-47.32704625231179 A 1067.1514759401325 1067.1514759401325 0 0 0 38.37821400646021,-11.318687630389897 Z M 335.1352742549327,-47.48295683788285 L 335.0967456397747,-45.48332798586705 A 1065.1514759401325 1065.1514759401325 0 0 1 583.5750155724661,-11.154529363639657 L 582.8173833999733,-8.25177317491074 L 591.5682427999074,-10.101762299902155 L 584.8377358599539,-15.992456344854519 L 584.0801036874611,-13.089700156125602 A 1067.1514759401325 1067.1514759401325 0 0 0 335.1352742549327,-47.48295683788285"/><text text-anchor="middle" pointer-events="none" font-size="8px" fill="#000000" x="311.11728659647326" y="-43.67537781018416" transform="rotate(180 311.11728659647326 -46.67537781018416)" font-family="sans-serif">IS_SUB_OF</text></g><g class="relationship" transform="translate(584.5720923075914 -70.25845321976584) rotate(515.802206352541)"><path class="outline" fill="#FFE081" stroke="none" d="M 38.37821400646021,-11.318687630389897 L 38.89585209666525,-9.386835977811762 A 1469.8873834695642 1469.8873834695642 0 0 1 391.75636163476565,-59.21337096912862 L 391.7188426523323,-61.2130190196508 A 1471.8873834695642 1471.8873834695642 0 0 0 38.37821400646021,-11.318687630389897 Z M 439.74920128596665,-61.33040116768302 L 439.72145663590607,-59.33059361834398 A 1469.8873834695642 1469.8873834695642 0 0 1 792.8212933710066,-11.229366208077252 L 792.0590092739864,-8.327828175338396 L 800.8128228239837,-10.163787960269605 L 794.0917668660403,-16.065262929308677 L 793.32948276902,-13.163724896569821 A 1471.8873834695642 1471.8873834695642 0 0 0 439.74920128596665,-61.33040116768302"/><text text-anchor="middle" pointer-events="none" font-size="8px" fill="#000000" x="415.7359870451761" y="-57.46764143514997" transform="rotate(180 415.7359870451761 -60.46764143514997)" font-family="sans-serif">IS_SUB_OF</text></g><g class="relationship" transform="translate(166.74230015409017 279.7314093395887) rotate(248.6367201724513)"><path class="outline" fill="#FFE081" stroke="none" d="M 38.37821400646021,11.318687630389897 L 38.89585209666525,9.386835977811762 A 563.5423024457724 563.5423024457724 0 0 0 157.72652091809042,27.940710511805946 L 157.63061041889566,29.93840948215768 A 565.5423024457724 565.5423024457724 0 0 1 38.37821400646021,11.318687630389897 Z M 205.70043549262815,30.20093748541308 L 205.62635048532994,28.20231010350983 A 563.5423024457724 563.5423024457724 0 0 0 324.6525846486023,10.947464590430618 L 323.9078246650968,8.041379153460646 L 332.65039914169074,9.930133113406065 L 325.8938512877781,15.790940318713904 L 325.1490913042726,12.884854881743932 A 565.5423024457724 565.5423024457724 0 0 1 205.70043549262815,30.20093748541308"/><text text-anchor="middle" pointer-events="none" font-size="8px" fill="#000000" x="181.66819367452658" y="32.58065523717244" transform="rotate(180 181.66819367452658 29.580655237172437)" font-family="sans-serif">IS_SUB_OF</text></g><g class="relationship" transform="translate(31.44935943847372 -66.14782803371952) rotate(428.6367201724513)"><path class="outline" fill="#FFE081" stroke="none" d="M 38.37821400646021,11.318687630389897 L 38.89585209666525,9.386835977811762 A 563.5423024457724 563.5423024457724 0 0 0 157.72652091809042,27.940710511805946 L 157.63061041889566,29.93840948215768 A 565.5423024457724 565.5423024457724 0 0 1 38.37821400646021,11.318687630389897 Z M 205.70043549262815,30.20093748541308 L 205.62635048532994,28.20231010350983 A 563.5423024457724 563.5423024457724 0 0 0 324.6525846486023,10.947464590430618 L 323.9078246650968,8.041379153460646 L 332.65039914169074,9.930133113406065 L 325.8938512877781,15.790940318713904 L 325.1490913042726,12.884854881743932 A 565.5423024457724 565.5423024457724 0 0 1 205.70043549262815,30.20093748541308"/><text text-anchor="middle" pointer-events="none" font-size="8px" fill="#000000" x="181.66819367452658" y="32.58065523717244" font-family="sans-serif">IS_SUB_OF</text></g><g class="relationship" transform="translate(449.09969757213366 271.099721569458) rotate(324.9476501678157)"><path class="outline" fill="#FFE081" stroke="none" d="M 11.3186876303899 38.37821400646021 L 21.671449434490732 77.01524705802294 A 22.435935394489817 22.435935394489817 0 1 1 -21.671449434490732 77.01524705802294 L -13.389239991210065 46.105620616772754 L -8.559610859764723 47.39971584228536 L -10.352761804100831 38.63703305156273 L -16.287017470077267 45.329163481465194 L -11.457388338631928 46.62325870697779 L -19.739597781912593 77.53288514822798 A 20.435935394489817 20.435935394489817 0 1 0 19.739597781912593 77.53288514822798 L 9.386835977811764 38.89585209666525 Z"/><text text-anchor="middle" pointer-events="none" font-size="8px" fill="#000000" x="0" y="114.25802982729645" font-family="sans-serif">IS_SUB_OF</text></g><g class="relationship" transform="translate(-181.16599335736748 273.8424454178469) rotate(324.5997569630882)"><path class="outline" fill="#FFE081" stroke="none" d="M 38.37821400646021,11.318687630389897 L 38.89585209666525,9.386835977811762 A 994.515072304869 994.515072304869 0 0 0 268.8994677545614,42.89670840933752 L 268.84437391745615,44.89594943260431 A 996.515072304869 996.515072304869 0 0 1 38.37821400646021,11.318687630389897 Z M 316.8876513748125,45.06132852155008 L 316.8463226312813,43.06175558340601 A 994.515072304869 994.515072304869 0 0 0 547.0751864858606,11.136138685500793 L 546.3186975194723,8.233084355362848 L 555.0688276883579,10.086519551844487 L 548.3360014298413,15.974562569064034 L 547.5795124634529,13.07150823892609 A 996.515072304869 996.515072304869 0 0 1 316.8876513748125,45.06132852155008"/><text text-anchor="middle" pointer-events="none" font-size="8px" fill="#000000" x="292.8684581266659" y="47.268217239687715" font-family="sans-serif">IS_SUB_OF</text></g><g class="relationship" transform="translate(449.09969757213366 271.099721569458) rotate(291.646291490956)"><path class="outline" fill="#FFE081" stroke="none" d="M 38.37821400646021,-11.318687630389897 L 38.89585209666525,-9.386835977811762 A 555.5020574748879 555.5020574748879 0 0 1 155.65686811321024,-27.657901491861026 L 155.5596101618198,-29.65553531488547 A 557.5020574748879 557.5020574748879 0 0 0 38.37821400646021,-11.318687630389897 Z M 203.63022587473677,-29.92096650495057 L 203.55503382323164,-27.922380465924448 A 555.5020574748879 555.5020574748879 0 0 1 320.51069846462497,-10.941826749261164 L 319.7662889753439,-8.03565151155297 L 328.50863559494053,-9.925459857081014 L 321.7513809467601,-15.78545214544149 L 321.00697145747904,-12.879276907733296 A 557.5020574748879 557.5020574748879 0 0 0 203.63022587473677,-29.92096650495057"/><text text-anchor="middle" pointer-events="none" font-size="8px" fill="#000000" x="179.59757740240607" y="-26.306626152826766" font-family="sans-serif">IS_SUB_OF</text></g><g class="relationship" transform="translate(449.09969757213366 271.099721569458) rotate(538.2490088446755)"><path class="outline" fill="#FFE081" stroke="none" d="M 38.37821400646021,11.318687630389897 L 38.89585209666525,9.386835977811762 A 390.6309681542797 390.6309681542797 0 0 0 113.29380219380775,21.783382147219015 L 113.15707578835043,23.778703146469695 A 392.6309681542797 392.6309681542797 0 0 1 38.37821400646021,11.318687630389897 Z M 161.2483011114388,24.121810200861717 L 161.1400584277325,22.124741468588297 A 390.6309681542797 390.6309681542797 0 0 0 235.70731244858834,10.790988190159897 L 234.9722806616388,7.882426987060719 L 243.70848625250267,9.800423825994123 L 236.9323654268376,15.638590195325193 L 236.19733363988806,12.730028992226014 A 392.6309681542797 392.6309681542797 0 0 1 161.2483011114388,24.121810200861717"/><text text-anchor="middle" pointer-events="none" font-size="8px" fill="#000000" x="137.2045645397424" y="26.687296590388883" transform="rotate(180 137.2045645397424 23.687296590388883)" font-family="sans-serif">IS_SUB_OF</text></g><g class="relationship" transform="translate(-181.16599335736748 273.8424454178469) rotate(335.802206352541)"><path class="outline" fill="#FFE081" stroke="none" d="M 38.37821400646021,-11.318687630389897 L 38.89585209666525,-9.386835977811762 A 1469.8873834695642 1469.8873834695642 0 0 1 391.75636163476565,-59.21337096912862 L 391.7188426523323,-61.2130190196508 A 1471.8873834695642 1471.8873834695642 0 0 0 38.37821400646021,-11.318687630389897 Z M 439.74920128596665,-61.33040116768302 L 439.72145663590607,-59.33059361834398 A 1469.8873834695642 1469.8873834695642 0 0 1 792.8212933710066,-11.229366208077252 L 792.0590092739864,-8.327828175338396 L 800.8128228239837,-10.163787960269605 L 794.0917668660403,-16.065262929308677 L 793.32948276902,-13.163724896569821 A 1471.8873834695642 1471.8873834695642 0 0 0 439.74920128596665,-61.33040116768302"/><text text-anchor="middle" pointer-events="none" font-size="8px" fill="#000000" x="415.7359870451761" y="-57.46764143514997" font-family="sans-serif">IS_SUB_OF</text></g><g class="relationship" transform="translate(166.74230015409017 279.7314093395887) rotate(180.9697399158921)"><path class="outline" fill="#FFE081" stroke="none" d="M 38.37821400646021,-11.318687630389897 L 38.89585209666525,-9.386835977811762 A 518.0128732090926 518.0128732090926 0 0 1 146.01039832013313,-26.335807439618634 L 145.9063196287897,-28.33309751019135 A 520.0128732090926 520.0128732090926 0 0 0 38.37821400646021,-11.318687630389897 Z M 193.9808508951709,-28.612953798456488 L 193.90003212053543,-26.614587384190486 A 518.0128732090926 518.0128732090926 0 0 1 301.20464231543207,-10.913814244186984 L 300.4619743259502,-8.007193481617684 L 309.20318701211085,-9.902239859758401 L 302.4424222979019,-15.758182181802486 L 301.69975430842004,-12.851561419233185 A 520.0128732090926 520.0128732090926 0 0 0 193.9808508951709,-28.612953798456488"/><text text-anchor="middle" pointer-events="none" font-size="8px" fill="#000000" x="169.94617063457102" y="-25.028902793204338" transform="rotate(180 169.94617063457102 -28.028902793204338)" font-family="sans-serif">IS_SUB_OF</text></g><g class="relationship" transform="translate(584.5720923075914 -70.25845321976584) rotate(539.5742045579734)"><path class="outline" fill="#FFE081" stroke="none" d="M 9.386835977811762,38.89585209666525 L 11.318687630389897,38.37821400646021 A 273.94851600647587 273.94851600647587 0 0 0 248.25465329460388,240.0218484026081 L 248.05258626811667,242.0116144483548 A 275.94851600647587 275.94851600647587 0 0 1 9.386835977811762,38.89585209666525 Z M 296.16135157660875,242.681193446644 L 296.0147393204187,240.68657447392388 A 273.94851600647587 273.94851600647587 0 0 0 538.4708035630622,45.71513033486909 L 535.5957578456147,44.85832690199387 L 541.7139612898786,38.333942899300816 L 543.2625464254746,47.14313605632778 L 540.3875007080271,46.286332623452566 A 275.94851600647587 275.94851600647587 0 0 1 296.16135157660875,242.681193446644"/><text text-anchor="middle" pointer-events="none" font-size="8px" fill="#000000" x="272.10626458289255" y="245.39701022749466" transform="rotate(180 272.10626458289255 242.39701022749466)" font-family="sans-serif">IS_SUB_OF</text></g><g class="relationship" transform="translate(-181.16599335736748 273.8424454178469) rotate(359.7506678355154)"><path class="outline" fill="#FFE081" stroke="none" d="M 38.37821400646021,-11.318687630389897 L 38.89585209666525,-9.386835977811762 A 1065.1514759401325 1065.1514759401325 0 0 1 287.1460699150479,-45.32770959983657 L 287.0945631187028,-47.32704625231179 A 1067.1514759401325 1067.1514759401325 0 0 0 38.37821400646021,-11.318687630389897 Z M 335.1352742549327,-47.48295683788285 L 335.0967456397747,-45.48332798586705 A 1065.1514759401325 1065.1514759401325 0 0 1 583.5750155724661,-11.154529363639657 L 582.8173833999733,-8.25177317491074 L 591.5682427999074,-10.101762299902155 L 584.8377358599539,-15.992456344854519 L 584.0801036874611,-13.089700156125602 A 1067.1514759401325 1067.1514759401325 0 0 0 335.1352742549327,-47.48295683788285"/><text text-anchor="middle" pointer-events="none" font-size="8px" fill="#000000" x="311.11728659647326" y="-43.67537781018416" font-family="sans-serif">IS_SUB_OF</text></g><g class="relationship" transform="translate(166.74230015409017 279.7314093395887) rotate(320.0491991969209)"><path class="outline" fill="#FFE081" stroke="none" d="M 38.37821400646021,-11.318687630389897 L 38.89585209666525,-9.386835977811762 A 900.1698445125653 900.1698445125653 0 0 1 244.53598879528568,-39.64406870782341 L 244.47524256377199,-41.643145968800695 A 902.1698445125653 902.1698445125653 0 0 0 38.37821400646021,-11.318687630389897 Z M 292.5224893727776,-41.82311921311441 L 292.4767207454734,-39.82364297350705 A 900.1698445125653 900.1698445125653 0 0 1 498.33775619925643,-11.107793067895733 L 497.58302928001024,-8.204280147765163 L 506.33203295935334,-10.063025589949405 L 499.59563439800013,-15.94698126811335 L 498.84090747875393,-13.04346834798278 A 902.1698445125653 902.1698445125653 0 0 0 292.5224893727776,-41.82311921311441"/><text text-anchor="middle" pointer-events="none" font-size="8px" fill="#000000" x="268.50141336268655" y="-38.05305768044843" font-family="sans-serif">IS_SUB_OF</text></g><g class="relationship" transform="translate(302.83604796766855 -70.12299173303302) rotate(471.25609006494744)"><path class="outline" fill="#FFE081" stroke="none" d="M 38.37821400646021,11.318687630389897 L 38.89585209666525,9.386835977811762 A 571.2978613826548 571.2978613826548 0 0 0 159.72313647434976,28.213281021124885 L 159.62849063580575,30.21104030723677 A 573.2978613826548 573.2978613826548 0 0 1 38.37821400646021,11.318687630389897 Z M 207.69756854088536,30.47082715976933 L 207.62452117440276,28.472161584379137 A 571.2978613826548 571.2978613826548 0 0 0 328.64823465559857,10.952787786320345 L 327.90314373964435,8.046787179478958 L 336.64593324582705,9.934545546056228 L 329.89005284885565,15.796122131055988 L 329.1449619329014,12.890121524214601 A 573.2978613826548 573.2978613826548 0 0 1 207.69756854088536,30.47082715976933"/><text text-anchor="middle" pointer-events="none" font-size="8px" fill="#000000" x="183.66570993999548" y="32.844980874389535" transform="rotate(180 183.66570993999548 29.844980874389535)" font-family="sans-serif">IS_SUB_OF</text></g><g class="relationship" transform="translate(584.5720923075914 -70.25845321976584) rotate(539.9724516225942)"><path class="outline" fill="#FFE081" stroke="none" d="M 9.386835977811762,38.89585209666525 L 11.318687630389897,38.37821400646021 A 132.8258869090402 132.8258869090402 0 0 0 112.37701305474033,134.00269044339723 L 111.96682751373208,135.96017551918902 A 134.8258869090402 134.8258869090402 0 0 1 9.386835977811762,38.89585209666525 Z M 160.04888143819227,137.26934008061522 L 159.7458203612584,135.2924349276937 A 132.8258869090402 132.8258869090402 0 0 0 265.8578327331421,45.30873383799076 L 263.0065995855552,44.37574426779095 L 269.29621596953723,38.01644196782559 L 270.6098879791203,46.86371645499044 L 267.75865483153336,45.93072688479063 A 134.8258869090402 134.8258869090402 0 0 1 160.04888143819227,137.26934008061522"/><text text-anchor="middle" pointer-events="none" font-size="8px" fill="#000000" x="135.97621870991983" y="140.7766534496991" transform="rotate(180 135.97621870991983 137.7766534496991)" font-family="sans-serif">IS_SUB_OF</text></g><g class="relationship" transform="translate(449.09969757213366 271.099721569458) rotate(218.9204513268857)"><path class="outline" fill="#FFE081" stroke="none" d="M 38.37821400646021,-11.318687630389897 L 38.89585209666525,-9.386835977811762 A 884.2266643107283 884.2266643107283 0 0 1 240.41986150855953,-39.09364383166155 L 240.3580432155758,-41.092688228030056 A 886.2266643107283 886.2266643107283 0 0 0 38.37821400646021,-11.318687630389897 Z M 288.4060324939591,-41.27538534012626 L 288.3594180547462,-39.27592864040582 A 884.2266643107283 884.2266643107283 0 0 1 490.10351059021946,-11.102502697699059 L 489.3491125385984,-8.198904312985642 L 498.09790563332893,-10.058640688280732 L 491.36084067625455,-15.941833338888086 L 490.6064426246335,-13.03823495417467 A 886.2266643107283 886.2266643107283 0 0 0 288.4060324939591,-41.27538534012626"/><text text-anchor="middle" pointer-events="none" font-size="8px" fill="#000000" x="264.38460183238374" y="-37.50972963382594" transform="rotate(180 264.38460183238374 -40.50972963382594)" font-family="sans-serif">IS_SUB_OF</text></g><g class="relationship" transform="translate(166.74230015409017 279.7314093395887) rotate(291.25609006494744)"><path class="outline" fill="#FFE081" stroke="none" d="M 38.37821400646021,11.318687630389897 L 38.89585209666525,9.386835977811762 A 571.2978613826548 571.2978613826548 0 0 0 159.72313647434976,28.213281021124885 L 159.62849063580575,30.21104030723677 A 573.2978613826548 573.2978613826548 0 0 1 38.37821400646021,11.318687630389897 Z M 207.69756854088536,30.47082715976933 L 207.62452117440276,28.472161584379137 A 571.2978613826548 571.2978613826548 0 0 0 328.64823465559857,10.952787786320345 L 327.90314373964435,8.046787179478958 L 336.64593324582705,9.934545546056228 L 329.89005284885565,15.796122131055988 L 329.1449619329014,12.890121524214601 A 573.2978613826548 573.2978613826548 0 0 1 207.69756854088536,30.47082715976933"/><text text-anchor="middle" pointer-events="none" font-size="8px" fill="#000000" x="183.66570993999548" y="32.844980874389535" font-family="sans-serif">IS_SUB_OF</text></g><g class="relationship" transform="translate(449.09969757213366 271.099721569458) rotate(199.89765554878727)"><path class="outline" fill="#4C8EDA" stroke="none" d="M 38.24880448390895,-11.801650543534432 L 39.025261619216515,-8.903873064667227 A 1130.9840335182646 1130.9840335182646 0 0 1 295.3825281075276,-46.85650505400304 L 295.2860733212121,-49.85495406544169 A 1133.9840335182646 1133.9840335182646 0 0 0 38.24880448390895,-11.801650543534432 Z M 360.36284440107613,-50.080065991506444 L 360.2871359933175,-47.0810214374867 A 1130.9840335182646 1130.9840335182646 0 0 1 616.9008339031072,-10.90284567722892 L 616.1444429473072,-7.9997658088849795 L 625.9882689860391,-10.085212744000707 L 618.4136158147073,-16.7090054139168 L 617.6572248589073,-13.80592554557286 A 1133.9840335182646 1133.9840335182646 0 0 0 360.36284440107613,-50.080065991506444"/><text text-anchor="middle" pointer-events="none" font-size="8px" fill="#000000" x="327.82803241725344" y="-45.934443958042266" transform="rotate(180 327.82803241725344 -48.934443958042266)" font-family="sans-serif">RECEIPIENT_IN</text></g><g class="relationship" transform="translate(302.83604796766855 -70.12299173303302) rotate(526.4930605563435)"><path class="outline" fill="#4C8EDA" stroke="none" d="M 38.24880448390895,-11.801650543534432 L 39.025261619216515,-8.903873064667227 A 797.2600080459962 797.2600080459962 0 0 1 209.23842461835414,-35.250631777493254 L 209.10246052652553,-38.24754915468816 A 800.2600080459962 800.2600080459962 0 0 0 38.24880448390895,-11.801650543534432 Z M 274.2058542455477,-38.55020577673497 L 274.0977599323663,-35.55215380596155 A 797.2600080459962 797.2600080459962 0 0 1 444.54852536738304,-10.789094312842103 L 443.79904393940285,-7.884222957839826 L 453.6378801463799,-9.993085706402631 L 446.0474882233434,-16.598837022846652 L 445.2980067953632,-13.693965667844378 A 800.2600080459962 800.2600080459962 0 0 0 274.2058542455477,-38.55020577673497"/><text text-anchor="middle" pointer-events="none" font-size="8px" fill="#000000" x="241.65805154908907" y="-34.561217847706644" transform="rotate(180 241.65805154908907 -37.561217847706644)" font-family="sans-serif">RECEIPIENT_IN</text></g><g class="relationship" transform="translate(-181.16599335736748 273.8424454178469) rotate(271.3136831420504)"><path class="outline" fill="#4C8EDA" stroke="none" d="M 38.24880448390895,-11.801650543534432 L 39.025261619216515,-8.903873064667227 A 284.9062616651806 284.9062616651806 0 0 1 77.73187106813397,-16.44978380571149 L 77.36298598009583,-19.427018057802343 A 287.9062616651806 287.9062616651806 0 0 0 38.24880448390895,-11.801650543534432 Z M 142.56014456656155,-20.06587322275567 L 142.24967146826452,-17.08198206267059 A 284.9062616651806 284.9062616651806 0 0 1 181.09671648816362,-10.296005554844573 L 180.37719258705673,-7.383569228375625 L 190.1937874181239,-9.593652014758405 L 182.5357642903774,-16.120878207782468 L 181.8162403892705,-13.208441881313519 A 287.9062616651806 287.9062616651806 0 0 0 142.56014456656155,-20.06587322275567"/><text text-anchor="middle" pointer-events="none" font-size="8px" fill="#000000" x="109.9581197738268" y="-17.098069591618753" font-family="sans-serif">RECEIPIENT_IN</text></g><g class="relationship" transform="translate(584.5720923075914 -70.25845321976584) rotate(531.391020326482)"><path class="outline" fill="#4C8EDA" stroke="none" d="M 38.24880448390895,-11.801650543534432 L 39.025261619216515,-8.903873064667227 A 1333.0966147147071 1333.0966147147071 0 0 1 347.6049932516793,-53.82960208239592 L 347.5229638005164,-56.828480400891294 A 1336.0966147147071 1336.0966147147071 0 0 0 38.24880448390895,-11.801650543534432 Z M 412.5892964565797,-57.023330653950325 L 412.52522943850647,-54.024014829100224 A 1333.0966147147071 1333.0966147147071 0 0 1 721.3684968869336,-10.947245522242026 L 720.6094091238384,-8.044869638949315 L 730.4551684183593,-10.1211701746028 L 722.8866724131241,-16.751997288827447 L 722.1275846500289,-13.849621405534736 A 1336.0966147147071 1336.0966147147071 0 0 0 412.5892964565797,-57.023330653950325"/><text text-anchor="middle" pointer-events="none" font-size="8px" fill="#000000" x="380.0594357652175" y="-52.82205448388345" transform="rotate(180 380.0594357652175 -55.82205448388345)" font-family="sans-serif">RECEIPIENT_IN</text></g><g class="relationship" transform="translate(31.44935943847372 -66.14782803371952) rotate(511.83515640240154)"><path class="outline" fill="#4C8EDA" stroke="none" d="M 38.24880448390895,-11.801650543534432 L 39.025261619216515,-8.903873064667227 A 297.04134183614286 297.04134183614286 0 0 1 80.8139458205947,-16.9452574301946 L 80.45953785806958,-19.924249708818138 A 300.04134183614286 300.04134183614286 0 0 0 38.24880448390895,-11.801650543534432 Z M 145.65419751903025,-20.54686913464434 L 145.3567487147979,-17.561651519652003 A 297.04134183614286 297.04134183614286 0 0 1 187.2913898972278,-10.319838300746309 L 186.57041781246605,-7.407760133355483 L 196.38811044178112,-9.612961130156508 L 188.73333406675127,-16.14399463552796 L 188.01236198198953,-13.231916468137136 A 300.04134183614286 300.04134183614286 0 0 0 145.65419751903025,-20.54686913464434"/><text text-anchor="middle" pointer-events="none" font-size="8px" fill="#000000" x="113.0542305213239" y="-17.511697962608082" transform="rotate(180 113.0542305213239 -20.511697962608082)" font-family="sans-serif">RECEIPIENT_IN</text></g><g class="relationship" transform="translate(166.74230015409017 279.7314093395887) rotate(214.42645590670423)"><path class="outline" fill="#4C8EDA" stroke="none" d="M 38.24880448390895,-11.801650543534432 L 39.025261619216515,-8.903873064667227 A 648.016667304324 648.016667304324 0 0 1 170.77874872407617,-29.98567341893306 L 170.6122457477547,-32.981049315022915 A 651.016667304324 651.016667304324 0 0 0 38.24880448390895,-11.801650543534432 Z M 235.7341922441668,-33.33872337730281 L 235.60060176773814,-30.341699255843764 A 648.016667304324 648.016667304324 0 0 1 367.5777113801308,-10.70840587887719 L 366.8331314819575,-7.802274296302824 L 376.66839607694055,-9.927731975644386 L 369.06687117647743,-16.520669044025926 L 368.32229127830414,-13.614537461451558 A 651.016667304324 651.016667304324 0 0 0 235.7341922441668,-33.33872337730281"/><text text-anchor="middle" pointer-events="none" font-size="8px" fill="#000000" x="203.1769822456195" y="-29.474709061099816" transform="rotate(180 203.1769822456195 -32.474709061099816)" font-family="sans-serif">RECEIPIENT_IN</text></g></g><g class="layer nodes"><g class="node" transform="translate(302.83604796766855,-70.12299173303302)"><circle class="outline" cx="0" cy="0" r="40" fill="#4C8EDA" stroke="#2870c2" stroke-width="2px"/><text text-anchor="middle" pointer-events="none" font-family="sans-serif" dy="2.5" font-size="40" fill="#FFFFFF"/><text text-anchor="middle" pointer-events="none" y="5" font-size="10px" fill="#FFFFFF" font-family="sans-serif"> wikidataPerson</text></g><g class="node" transform="translate(-455.9397940425532,-197.26480064919292)"><circle class="outline" cx="0" cy="0" r="40" fill="#FFC454" stroke="#d7a013" stroke-width="2px"/><text text-anchor="middle" pointer-events="none" font-family="sans-serif" dy="2.5" font-size="40" fill="#604A0E"/><text text-anchor="middle" pointer-events="none" y="5" font-size="10px" fill="#604A0E" font-family="sans-serif"> Literature</text></g><g class="node" transform="translate(449.09969757213366,271.099721569458)"><circle class="outline" cx="0" cy="0" r="40" fill="#D9C8AE" stroke="#c0a378" stroke-width="2px"/><text text-anchor="middle" pointer-events="none" font-family="sans-serif" dy="2.5" font-size="40" fill="#604A0E"/><text text-anchor="middle" pointer-events="none" y="5" font-size="10px" fill="#604A0E" font-family="sans-serif"> IndexEvent</text></g><g class="node" transform="translate(-181.16599335736748,273.8424454178469)"><circle class="outline" cx="0" cy="0" r="40" fill="#ECB5C9" stroke="#da7298" stroke-width="2px"/><text text-anchor="middle" pointer-events="none" font-family="sans-serif" dy="2.5" font-size="40" fill="#604A0E"/><text text-anchor="middle" pointer-events="none" y="5" font-size="10px" fill="#604A0E" font-family="sans-serif"> IndexThing</text></g><g class="node selected" transform="translate(-171.73408150594125,-152.13098540776605)"><circle class="outline" cx="0" cy="0" r="40" fill="#C990C0" stroke="#b261a5" stroke-width="2px"/><text text-anchor="middle" pointer-events="none" font-family="sans-serif" dy="2.5" font-size="40" fill="#FFFFFF"/><text text-anchor="middle" pointer-events="none" y="5" font-size="10px" fill="#FFFFFF" font-family="sans-serif"> Lemma</text></g><g class="node" transform="translate(-330.32399858659926,-90.40992096438163)"><circle class="outline" cx="0" cy="0" r="40" fill="#FFC454" stroke="#d7a013" stroke-width="2px"/><text text-anchor="middle" pointer-events="none" font-family="sans-serif" dy="2.5" font-size="40" fill="#604A0E"/><text text-anchor="middle" pointer-events="none" y="5" font-size="10px" fill="#604A0E" font-family="sans-serif"> Reference</text></g><g class="node" transform="translate(166.74230015409017,279.7314093395887)"><circle class="outline" cx="0" cy="0" r="40" fill="#8DCC93" stroke="#5db665" stroke-width="2px"/><text text-anchor="middle" pointer-events="none" font-family="sans-serif" dy="2.5" font-size="40" fill="#604A0E"/><text text-anchor="middle" pointer-events="none" y="5" font-size="10px" fill="#604A0E" font-family="sans-serif"> IndexPlace</text></g><g class="node" transform="translate(584.5720923075914,-70.25845321976584)"><circle class="outline" cx="0" cy="0" r="40" fill="#57C7E3" stroke="#23b3d7" stroke-width="2px"/><text text-anchor="middle" pointer-events="none" font-family="sans-serif" dy="2.5" font-size="40" fill="#FFFFFF"/><text text-anchor="middle" pointer-events="none" y="5" font-size="10px" fill="#FFFFFF" font-family="sans-serif"> IndexEntry</text></g><g class="node" transform="translate(-175.9153170486515,44.87637028957636)"><circle class="outline" cx="0" cy="0" r="40" fill="#F16667" stroke="#eb2728" stroke-width="2px"/><text text-anchor="middle" pointer-events="none" font-family="sans-serif" dy="2.5" font-size="40" fill="#FFFFFF"/><text text-anchor="middle" pointer-events="none" y="5" font-size="10px" fill="#FFFFFF" font-family="sans-serif"> Regesta</text></g><g class="node" transform="translate(31.44935943847372,-66.14782803371952)"><circle class="outline" cx="0" cy="0" r="40" fill="#4C8EDA" stroke="#2870c2" stroke-width="2px"/><text text-anchor="middle" pointer-events="none" font-family="sans-serif" dy="2.5" font-size="40" fill="#FFFFFF"/><text text-anchor="middle" pointer-events="none" y="5" font-size="10px" fill="#FFFFFF" font-family="sans-serif"> IndexPerson</text></g><g class="node" transform="translate(-393.4402862075642,184.28341440534126)"><circle class="outline" cx="0" cy="0" r="40" fill="#D9C8AE" stroke="#c0a378" stroke-width="2px"/><text text-anchor="middle" pointer-events="none" font-family="sans-serif" dy="2.5" font-size="40" fill="#604A0E"/><text text-anchor="middle" pointer-events="none" y="5" font-size="10px" fill="#604A0E" font-family="sans-serif"> Date</text></g><g class="node" transform="translate(-441.973827109067,37.31254799949534)"><circle class="outline" cx="0" cy="0" r="40" fill="#8DCC93" stroke="#5db665" stroke-width="2px"/><text text-anchor="middle" pointer-events="none" font-family="sans-serif" dy="2.5" font-size="40" fill="#604A0E"/><text text-anchor="middle" pointer-events="none" y="5" font-size="10px" fill="#604A0E" font-family="sans-serif"> Place</text></g></g></svg>